<svg width="444" height="161" viewBox="0 0 444 161" fill="none" xmlns="http://www.w3.org/2000/svg">
<g opacity="0.2">
<mask id="mask0_0_609" style="mask-type:alpha" maskUnits="userSpaceOnUse" x="0" y="0" width="444" height="141">
<path fill-rule="evenodd" clip-rule="evenodd" d="M0 4C0 1.79086 1.79086 0 4 0H440C442.209 0 444 1.79086 444 4V137C444 139.209 442.209 141 440 141H4C1.79086 141 0 139.209 0 137V4Z" fill="url(#paint0_linear_0_609)"/>
</mask>
<g mask="url(#mask0_0_609)">
<path d="M156.548 125.774L158.171 103.709H154.208L150.44 139.25H155.557L156.357 128.991" stroke="#1F2857" stroke-width="1.5" stroke-linecap="round" stroke-linejoin="round"/>
<path d="M167.356 128.986L168.156 139.25H173.273L169.505 103.709H165.542L167.165 125.775" stroke="#1F2857" stroke-width="1.5" stroke-linecap="round" stroke-linejoin="round"/>
<path fill-rule="evenodd" clip-rule="evenodd" d="M176.113 100.179H147.6V101.394C147.6 102.667 148.641 103.709 149.915 103.709H173.798C175.071 103.709 176.113 102.667 176.113 101.394V100.179Z" stroke="#1F2857" stroke-width="1.5" stroke-linecap="round" stroke-linejoin="round"/>
<path fill-rule="evenodd" clip-rule="evenodd" d="M172.797 62.0905H150.917L147.091 83.8375H176.622L172.797 62.0905Z" stroke="#1F2857" stroke-width="1.5" stroke-linecap="round" stroke-linejoin="round"/>
<path fill-rule="evenodd" clip-rule="evenodd" d="M167.696 83.8372H156.017C152.958 85.7747 150.926 89.1862 150.926 93.0747C150.926 99.1112 155.82 100.179 161.856 100.179C167.893 100.179 172.786 99.1112 172.786 93.0747C172.786 89.1862 170.754 85.7747 167.696 83.8372Z" stroke="#1F2857" stroke-width="1.5" stroke-linecap="round" stroke-linejoin="round"/>
<path fill-rule="evenodd" clip-rule="evenodd" d="M168.247 125.774H155.466C154.994 125.774 154.612 126.157 154.612 126.628V128.137C154.612 128.609 154.994 128.991 155.466 128.991H168.247C168.719 128.991 169.101 128.609 169.101 128.137V126.628C169.101 126.157 168.719 125.774 168.247 125.774Z" stroke="#1F2857" stroke-width="1.5" stroke-linecap="round" stroke-linejoin="round"/>
<path fill-rule="evenodd" clip-rule="evenodd" d="M315.401 48.796H279.97C278.279 48.796 276.894 47.412 276.894 45.72V44.902H318.477V45.72C318.477 47.412 317.093 48.796 315.401 48.796Z" stroke="#1F2857" stroke-width="1.5" stroke-linecap="round" stroke-linejoin="round"/>
<path fill-rule="evenodd" clip-rule="evenodd" d="M280.827 44.902H314.545V10.6595H280.827V44.902Z" stroke="#1F2857" stroke-width="1.5" stroke-linecap="round" stroke-linejoin="round"/>
<path fill-rule="evenodd" clip-rule="evenodd" d="M285.693 40.087H309.678V15.475H285.693V40.087Z" stroke="#1F2857" stroke-width="1.5" stroke-linecap="round" stroke-linejoin="round"/>
<path fill-rule="evenodd" clip-rule="evenodd" d="M313.157 54.3836V54.3836C313.816 54.3836 314.362 53.8731 314.406 53.2161L314.705 48.7961H310.977L311.908 53.2161C311.952 53.8731 312.499 54.3836 313.157 54.3836Z" stroke="#1F2857" stroke-width="1.5" stroke-linecap="round" stroke-linejoin="round"/>
<path fill-rule="evenodd" clip-rule="evenodd" d="M282.214 54.3836V54.3836C282.873 54.3836 283.419 53.8731 283.463 53.2161L284.394 48.7961H280.666L280.965 53.2161C281.009 53.8731 281.555 54.3836 282.214 54.3836Z" stroke="#1F2857" stroke-width="1.5" stroke-linecap="round" stroke-linejoin="round"/>
<path d="M125.4 71.1844H148.996" stroke="#1F2857" stroke-width="1.5" stroke-linecap="round" stroke-linejoin="round"/>
<path d="M166.913 62.0015V10.6595L11.1959 10.6595V71.1845H84.9509" stroke="#1F2857" stroke-width="1.5" stroke-linecap="round" stroke-linejoin="round"/>
<path d="M162.047 62.0014V15.4749L16.0624 15.4749V66.3694H90.3794" stroke="#1F2857" stroke-width="1.5" stroke-linecap="round" stroke-linejoin="round"/>
<path d="M121.45 66.3693H150.135" stroke="#1F2857" stroke-width="1.5" stroke-linecap="round" stroke-linejoin="round"/>
<path d="M36.033 15.4748L25.383 26.1248" stroke="#1F2857" stroke-width="1.5" stroke-linecap="round" stroke-linejoin="round"/>
<path d="M41.6322 15.4748L36.8062 20.3008" stroke="#1F2857" stroke-width="1.5" stroke-linecap="round" stroke-linejoin="round"/>
<path d="M55.1011 119.759C54.2716 119.759 53.5731 119.977 53.5731 119.977L51.5351 117.502L50.0376 120.544C49.1211 121.827 48.8151 124.124 48.8151 124.124C48.8151 124.124 46.8311 124.805 47.2441 128.009C47.6656 131.283 51.7401 131.283 51.7401 131.283H52.9521" stroke="#1F2857" stroke-width="1.5" stroke-linecap="round" stroke-linejoin="round"/>
<path d="M55.1011 119.759C55.9306 119.759 56.6291 119.977 56.6291 119.977L58.6671 117.502L60.1646 120.544C61.0811 121.827 61.3871 124.124 61.3871 124.124C61.3871 124.124 63.3866 124.807 62.9581 128.009C62.5201 131.283 58.4621 131.283 58.4621 131.283H57.2501" stroke="#1F2857" stroke-width="1.5" stroke-linecap="round" stroke-linejoin="round"/>
<path fill-rule="evenodd" clip-rule="evenodd" d="M52.7037 123.748C52.7037 124.054 52.4562 124.301 52.1507 124.301C51.8447 124.301 51.5972 124.054 51.5972 123.748C51.5972 123.443 51.8447 123.195 52.1507 123.195C52.4562 123.195 52.7037 123.443 52.7037 123.748" fill="#1F2857"/>
<path d="M54.5594 125.901H55.6344" stroke="#1F2857" stroke-width="1.5" stroke-linecap="round" stroke-linejoin="round"/>
<path d="M55.1011 125.901C55.1011 125.901 55.0971 128.488 52.6746 128.488" stroke="#1F2857" stroke-width="1.5" stroke-linecap="round" stroke-linejoin="round"/>
<path d="M55.1011 125.901C55.1011 125.901 55.1051 128.488 57.5276 128.488" stroke="#1F2857" stroke-width="1.5" stroke-linecap="round" stroke-linejoin="round"/>
<path d="M50.103 131.128C50.103 131.128 47.1945 132.242 46.337 136.58" stroke="#1F2857" stroke-width="1.5" stroke-linecap="round" stroke-linejoin="round"/>
<path d="M63.7908 127.662C63.7908 127.662 72.6098 126.573 74.5988 134.693" stroke="#1F2857" stroke-width="1.5" stroke-linecap="round" stroke-linejoin="round"/>
<path d="M57.0361 123.748C57.0361 123.748 58.0036 122.769 59.0596 123.748" stroke="#1F2857" stroke-width="1.5" stroke-linecap="round" stroke-linejoin="round"/>
<path d="M51.1343 123.748C51.1343 123.748 52.1018 122.769 53.1578 123.748" stroke="#1F2857" stroke-width="1.5" stroke-linecap="round" stroke-linejoin="round"/>
<path fill-rule="evenodd" clip-rule="evenodd" d="M74.5988 134.693C74.5988 134.693 77.2523 134.17 77.2893 136.816C77.3173 138.81 73.2833 139.132 70.7158 139.132C64.7518 139.132 65.6533 136.38 61.6313 136.625C59.1163 136.779 59.2108 134.606 60.8133 133.973C62.3943 133.347 63.7908 133.013 67.3433 135.13C69.9993 136.713 75.1188 136.047 74.5988 134.693Z" stroke="#1F2857" stroke-width="1.5" stroke-linecap="round" stroke-linejoin="round"/>
<path d="M46.337 136.58H44.1475C44.1475 136.58 41.3975 136.629 41.3975 139.132" stroke="#1F2857" stroke-width="1.5" stroke-linecap="round" stroke-linejoin="round"/>
<path d="M46.6106 139.132C46.6106 136.629 49.3606 136.581 49.3606 136.581H51.9521C51.9581 135.315 52.3581 134.479 52.9521 133.854" stroke="#1F2857" stroke-width="1.5" stroke-linecap="round" stroke-linejoin="round"/>
<rect x="38" y="139.061" width="37.386" height="1.80368" rx="0.901841" fill="#1F2857"/>
<path fill-rule="evenodd" clip-rule="evenodd" d="M22 139.963C22 139.465 22.4038 139.061 22.9018 139.061H31.0982C31.5962 139.061 32 139.465 32 139.963V139.963C32 140.461 31.5962 140.865 31.0982 140.865H22.9018C22.4038 140.865 22 140.461 22 139.963V139.963Z" fill="#1F2857"/>
<rect x="392.118" y="139.061" width="15.3981" height="1.80368" rx="0.901841" fill="#1F2857"/>
<path d="M433.838 139.124H425.295" stroke="#1F2857" stroke-width="1.5" stroke-linecap="round" stroke-linejoin="round"/>
<path d="M433.25 138.75V10.1595H341.75V138.75" stroke="#1F2857" stroke-width="1.5" stroke-linecap="round" stroke-linejoin="round"/>
<path d="M348.75 138.75V17.6595H426.25V138.75" stroke="#1F2857" stroke-width="1.5" stroke-linecap="round" stroke-linejoin="round"/>
<path d="M426.25 17.6594L433.25 10.6594" stroke="#1F2857" stroke-width="1.5" stroke-linecap="round" stroke-linejoin="round"/>
<path d="M348.75 17.6594L341.75 10.6594" stroke="#1F2857" stroke-width="1.5" stroke-linecap="round" stroke-linejoin="round"/>
</g>
</g>
<rect width="242.309" height="1.80368" rx="0.901841" transform="matrix(-1 0 0 1 353.305 149.061)" fill="#1F2857"/>
<rect width="24.386" height="1.80368" rx="0.901841" transform="matrix(-1 0 0 1 107.882 149.061)" fill="#1F2857"/>
<rect width="5.39806" height="1.80368" rx="0.901841" transform="matrix(-1 0 0 1 361 149.061)" fill="#1F2857"/>
<path fill-rule="evenodd" clip-rule="evenodd" d="M151.176 36.2119C147.956 36.2119 145.347 38.8352 145.347 42.0716V143.864C145.347 147.101 147.956 149.724 151.176 149.724H248.296C251.515 149.724 254.125 147.101 254.125 143.864V42.0716C254.125 38.8352 251.515 36.2119 248.296 36.2119H151.176Z" fill="#ECECF2"/>
<path fill-rule="evenodd" clip-rule="evenodd" d="M151.104 35.9056H248.224C251.444 35.9056 254.053 38.529 254.053 41.7653V143.558C254.053 146.795 251.444 149.418 248.224 149.418H151.104C147.885 149.418 145.275 146.795 145.275 143.558V41.7653C145.275 38.529 147.885 35.9056 151.104 35.9056Z" stroke="#1C1F34" stroke-width="2.025" stroke-linecap="round" stroke-linejoin="round"/>
<path fill-rule="evenodd" clip-rule="evenodd" d="M248.296 145.651C249.276 145.651 250.073 144.849 250.073 143.865V42.0719C250.073 41.0868 249.276 40.2856 248.296 40.2856H151.176C150.196 40.2856 149.399 41.0868 149.399 42.0719V143.865C149.399 144.849 150.196 145.651 151.176 145.651H248.296Z" fill="white"/>
<path fill-rule="evenodd" clip-rule="evenodd" d="M145.347 60.5631H140.486V50.8743H145.347V60.5631Z" fill="#434D9E"/>
<path fill-rule="evenodd" clip-rule="evenodd" d="M145.347 60.5631H140.486V50.8743H145.347V60.5631Z" stroke="#1C1F34" stroke-width="2.025" stroke-linecap="round" stroke-linejoin="round"/>
<path fill-rule="evenodd" clip-rule="evenodd" d="M166.27 126.599C166.27 125.468 167.183 124.551 168.308 124.551C169.434 124.551 170.345 125.468 170.345 126.599C170.345 127.73 169.434 128.647 168.308 128.647C167.183 128.647 166.27 127.73 166.27 126.599" fill="#DEDEDE"/>
<path fill-rule="evenodd" clip-rule="evenodd" d="M166.27 126.599C166.27 125.468 167.183 124.551 168.308 124.551C169.434 124.551 170.345 125.468 170.345 126.599C170.345 127.73 169.434 128.647 168.308 128.647C167.183 128.647 166.27 127.73 166.27 126.599Z" stroke="#1C1F34" stroke-width="2.025" stroke-linecap="round" stroke-linejoin="round"/>
<path d="M166.877 125.16L165.174 123.448" stroke="#1C1F34" stroke-width="2.025" stroke-linecap="round" stroke-linejoin="round"/>
<path d="M166.877 128.038L165.174 129.75" stroke="#1C1F34" stroke-width="2.025" stroke-linecap="round" stroke-linejoin="round"/>
<path d="M169.739 128.038L171.442 129.75" stroke="#1C1F34" stroke-width="2.025" stroke-linecap="round" stroke-linejoin="round"/>
<path d="M169.739 125.16L171.442 123.448" stroke="#1C1F34" stroke-width="2.025" stroke-linecap="round" stroke-linejoin="round"/>
<path fill-rule="evenodd" clip-rule="evenodd" d="M197.698 126.599C197.698 125.468 198.611 124.551 199.736 124.551C200.862 124.551 201.773 125.468 201.773 126.599C201.773 127.73 200.862 128.647 199.736 128.647C198.611 128.647 197.698 127.73 197.698 126.599" fill="#DEDEDE"/>
<path fill-rule="evenodd" clip-rule="evenodd" d="M197.698 126.599C197.698 125.468 198.611 124.551 199.736 124.551C200.862 124.551 201.773 125.468 201.773 126.599C201.773 127.73 200.862 128.647 199.736 128.647C198.611 128.647 197.698 127.73 197.698 126.599Z" stroke="#1C1F34" stroke-width="2.025" stroke-linecap="round" stroke-linejoin="round"/>
<path d="M198.304 125.16L196.602 123.448" stroke="#1C1F34" stroke-width="2.025" stroke-linecap="round" stroke-linejoin="round"/>
<path d="M198.304 128.038L196.602 129.75" stroke="#1C1F34" stroke-width="2.025" stroke-linecap="round" stroke-linejoin="round"/>
<path d="M201.167 128.038L202.87 129.75" stroke="#1C1F34" stroke-width="2.025" stroke-linecap="round" stroke-linejoin="round"/>
<path d="M201.167 125.16L202.87 123.448" stroke="#1C1F34" stroke-width="2.025" stroke-linecap="round" stroke-linejoin="round"/>
<path fill-rule="evenodd" clip-rule="evenodd" d="M229.126 126.599C229.126 125.468 230.039 124.551 231.164 124.551C232.289 124.551 233.201 125.468 233.201 126.599C233.201 127.73 232.289 128.647 231.164 128.647C230.039 128.647 229.126 127.73 229.126 126.599" fill="#DEDEDE"/>
<path fill-rule="evenodd" clip-rule="evenodd" d="M229.126 126.599C229.126 125.468 230.039 124.551 231.164 124.551C232.289 124.551 233.201 125.468 233.201 126.599C233.201 127.73 232.289 128.647 231.164 128.647C230.039 128.647 229.126 127.73 229.126 126.599Z" stroke="#1C1F34" stroke-width="2.025" stroke-linecap="round" stroke-linejoin="round"/>
<path d="M229.732 125.16L228.03 123.448" stroke="#1C1F34" stroke-width="2.025" stroke-linecap="round" stroke-linejoin="round"/>
<path d="M229.732 128.038L228.03 129.75" stroke="#1C1F34" stroke-width="2.025" stroke-linecap="round" stroke-linejoin="round"/>
<path d="M232.595 128.038L234.298 129.75" stroke="#1C1F34" stroke-width="2.025" stroke-linecap="round" stroke-linejoin="round"/>
<path d="M232.595 125.16L234.298 123.448" stroke="#1C1F34" stroke-width="2.025" stroke-linecap="round" stroke-linejoin="round"/>
<path fill-rule="evenodd" clip-rule="evenodd" d="M229.126 92.9681C229.126 91.8371 230.039 90.9199 231.164 90.9199C232.289 90.9199 233.201 91.8371 233.201 92.9681C233.201 94.0992 232.289 95.0164 231.164 95.0164C230.039 95.0164 229.126 94.0992 229.126 92.9681" fill="#DEDEDE"/>
<path fill-rule="evenodd" clip-rule="evenodd" d="M229.126 92.9681C229.126 91.8371 230.039 90.9199 231.164 90.9199C232.289 90.9199 233.201 91.8371 233.201 92.9681C233.201 94.0992 232.289 95.0164 231.164 95.0164C230.039 95.0164 229.126 94.0992 229.126 92.9681Z" stroke="#1C1F34" stroke-width="2.025" stroke-linecap="round" stroke-linejoin="round"/>
<path d="M229.732 91.529L228.03 89.8175" stroke="#1C1F34" stroke-width="2.025" stroke-linecap="round" stroke-linejoin="round"/>
<path d="M229.732 94.4073L228.03 96.1189" stroke="#1C1F34" stroke-width="2.025" stroke-linecap="round" stroke-linejoin="round"/>
<path d="M232.595 94.4073L234.298 96.1189" stroke="#1C1F34" stroke-width="2.025" stroke-linecap="round" stroke-linejoin="round"/>
<path d="M232.595 91.529L234.298 89.8175" stroke="#1C1F34" stroke-width="2.025" stroke-linecap="round" stroke-linejoin="round"/>
<path fill-rule="evenodd" clip-rule="evenodd" d="M197.698 92.9681C197.698 91.8371 198.611 90.9199 199.736 90.9199C200.862 90.9199 201.773 91.8371 201.773 92.9681C201.773 94.0992 200.862 95.0164 199.736 95.0164C198.611 95.0164 197.698 94.0992 197.698 92.9681" fill="#ECECF2"/>
<path fill-rule="evenodd" clip-rule="evenodd" d="M197.698 92.9681C197.698 91.8371 198.611 90.9199 199.736 90.9199C200.862 90.9199 201.773 91.8371 201.773 92.9681C201.773 94.0992 200.862 95.0164 199.736 95.0164C198.611 95.0164 197.698 94.0992 197.698 92.9681Z" stroke="#1C1F34" stroke-width="2.025" stroke-linecap="round" stroke-linejoin="round"/>
<path d="M198.304 91.529L196.602 89.8175" stroke="#1C1F34" stroke-width="2.025" stroke-linecap="round" stroke-linejoin="round"/>
<path d="M198.304 94.4073L196.602 96.1189" stroke="#1C1F34" stroke-width="2.025" stroke-linecap="round" stroke-linejoin="round"/>
<path d="M201.167 94.4073L202.87 96.1189" stroke="#1C1F34" stroke-width="2.025" stroke-linecap="round" stroke-linejoin="round"/>
<path d="M201.167 91.529L202.87 89.8175" stroke="#1C1F34" stroke-width="2.025" stroke-linecap="round" stroke-linejoin="round"/>
<path fill-rule="evenodd" clip-rule="evenodd" d="M166.27 92.9681C166.27 91.8371 167.183 90.9199 168.308 90.9199C169.434 90.9199 170.345 91.8371 170.345 92.9681C170.345 94.0992 169.434 95.0164 168.308 95.0164C167.183 95.0164 166.27 94.0992 166.27 92.9681" fill="#ECECF2"/>
<path fill-rule="evenodd" clip-rule="evenodd" d="M166.27 92.9681C166.27 91.8371 167.183 90.9199 168.308 90.9199C169.434 90.9199 170.345 91.8371 170.345 92.9681C170.345 94.0992 169.434 95.0164 168.308 95.0164C167.183 95.0164 166.27 94.0992 166.27 92.9681Z" stroke="#1C1F34" stroke-width="2.025" stroke-linecap="round" stroke-linejoin="round"/>
<path d="M166.877 91.529L165.174 89.8175" stroke="#1C1F34" stroke-width="2.025" stroke-linecap="round" stroke-linejoin="round"/>
<path d="M166.877 94.4073L165.174 96.1189" stroke="#1C1F34" stroke-width="2.025" stroke-linecap="round" stroke-linejoin="round"/>
<path d="M169.739 94.4073L171.442 96.1189" stroke="#1C1F34" stroke-width="2.025" stroke-linecap="round" stroke-linejoin="round"/>
<path d="M169.739 91.529L171.442 89.8175" stroke="#1C1F34" stroke-width="2.025" stroke-linecap="round" stroke-linejoin="round"/>
<path fill-rule="evenodd" clip-rule="evenodd" d="M166.27 59.3372C166.27 58.2062 167.183 57.2889 168.308 57.2889C169.434 57.2889 170.345 58.2062 170.345 59.3372C170.345 60.4683 169.434 61.3855 168.308 61.3855C167.183 61.3855 166.27 60.4683 166.27 59.3372" fill="#ECECF2"/>
<path fill-rule="evenodd" clip-rule="evenodd" d="M166.27 59.3372C166.27 58.2062 167.183 57.2889 168.308 57.2889C169.434 57.2889 170.345 58.2062 170.345 59.3372C170.345 60.4683 169.434 61.3855 168.308 61.3855C167.183 61.3855 166.27 60.4683 166.27 59.3372Z" stroke="#1C1F34" stroke-width="2.025" stroke-linecap="round" stroke-linejoin="round"/>
<path d="M166.877 57.8981L165.174 56.1866" stroke="#1C1F34" stroke-width="2.025" stroke-linecap="round" stroke-linejoin="round"/>
<path d="M166.877 60.7763L165.174 62.4878" stroke="#1C1F34" stroke-width="2.025" stroke-linecap="round" stroke-linejoin="round"/>
<path d="M169.739 60.7763L171.442 62.4878" stroke="#1C1F34" stroke-width="2.025" stroke-linecap="round" stroke-linejoin="round"/>
<path d="M169.739 57.8981L171.442 56.1866" stroke="#1C1F34" stroke-width="2.025" stroke-linecap="round" stroke-linejoin="round"/>
<path fill-rule="evenodd" clip-rule="evenodd" d="M229.126 59.3372C229.126 58.2062 230.039 57.2889 231.164 57.2889C232.289 57.2889 233.201 58.2062 233.201 59.3372C233.201 60.4683 232.289 61.3855 231.164 61.3855C230.039 61.3855 229.126 60.4683 229.126 59.3372" fill="#DEDEDE"/>
<path fill-rule="evenodd" clip-rule="evenodd" d="M229.126 59.3372C229.126 58.2062 230.039 57.2889 231.164 57.2889C232.289 57.2889 233.201 58.2062 233.201 59.3372C233.201 60.4683 232.289 61.3855 231.164 61.3855C230.039 61.3855 229.126 60.4683 229.126 59.3372Z" stroke="#1C1F34" stroke-width="2.025" stroke-linecap="round" stroke-linejoin="round"/>
<path d="M229.732 57.8981L228.03 56.1866" stroke="#1C1F34" stroke-width="2.025" stroke-linecap="round" stroke-linejoin="round"/>
<path d="M229.732 60.7763L228.03 62.4878" stroke="#1C1F34" stroke-width="2.025" stroke-linecap="round" stroke-linejoin="round"/>
<path d="M232.595 60.7763L234.298 62.4878" stroke="#1C1F34" stroke-width="2.025" stroke-linecap="round" stroke-linejoin="round"/>
<path d="M232.595 57.8981L234.298 56.1866" stroke="#1C1F34" stroke-width="2.025" stroke-linecap="round" stroke-linejoin="round"/>
<path fill-rule="evenodd" clip-rule="evenodd" d="M204.609 145.728H291.663V50.3258H204.609V145.728Z" fill="#B58B75"/>
<g opacity="0.6">
<path fill-rule="evenodd" clip-rule="evenodd" d="M204.609 53.8683H291.663V50.3251H204.609V53.8683Z" fill="black" style="mix-blend-mode:soft-light"/>
</g>
<g opacity="0.6">
<path fill-rule="evenodd" clip-rule="evenodd" d="M208.66 61.5455H246.39V54.3992H208.66V61.5455Z" fill="black" style="mix-blend-mode:soft-light"/>
</g>
<g opacity="0.6">
<path fill-rule="evenodd" clip-rule="evenodd" d="M208.66 84.2368H246.39V77.0906H208.66V84.2368Z" fill="black" style="mix-blend-mode:soft-light"/>
</g>
<g opacity="0.6">
<path fill-rule="evenodd" clip-rule="evenodd" d="M208.661 106.928H287.611V99.782H208.661V106.928Z" fill="black" style="mix-blend-mode:soft-light"/>
</g>
<g opacity="0.6">
<path fill-rule="evenodd" clip-rule="evenodd" d="M208.661 129.62H287.611V122.473H208.661V129.62Z" fill="black" style="mix-blend-mode:soft-light"/>
</g>
<g opacity="0.6">
<path fill-rule="evenodd" clip-rule="evenodd" d="M249.881 61.5455H287.611V54.3992H249.881V61.5455Z" fill="black" style="mix-blend-mode:soft-light"/>
</g>
<path fill-rule="evenodd" clip-rule="evenodd" d="M204.609 145.728H291.663V50.3258H204.609V145.728Z" stroke="#1C1F34" stroke-width="2.025" stroke-linecap="round" stroke-linejoin="round"/>
<path fill-rule="evenodd" clip-rule="evenodd" d="M208.661 141.655H287.611V54.3992H208.661V141.655Z" stroke="#1C1F34" stroke-width="2.025" stroke-linecap="round" stroke-linejoin="round"/>
<path fill-rule="evenodd" clip-rule="evenodd" d="M201.232 50.3258H295.04V46.8158H201.232V50.3258Z" fill="#B58B75"/>
<path fill-rule="evenodd" clip-rule="evenodd" d="M201.232 50.3258H295.04V46.8158H201.232V50.3258Z" stroke="#1C1F34" stroke-width="2.025" stroke-linecap="round" stroke-linejoin="round"/>
<path fill-rule="evenodd" clip-rule="evenodd" d="M208.633 122.473H287.639V118.963H208.633V122.473Z" stroke="#1C1F34" stroke-width="2.025" stroke-linecap="round" stroke-linejoin="round"/>
<path fill-rule="evenodd" clip-rule="evenodd" d="M249.881 96.2718V54.3992H246.39V73.5805H208.633V77.0905H246.39V96.2718H208.633V99.7818H287.639V96.2718H249.881Z" stroke="#1C1F34" stroke-width="2.025" stroke-linecap="round" stroke-linejoin="round"/>
<path fill-rule="evenodd" clip-rule="evenodd" d="M283.663 149.724H286.964L287.639 145.728H282.988L283.663 149.724Z" fill="#1C1F34"/>
<path fill-rule="evenodd" clip-rule="evenodd" d="M211.417 149.724H208.117L207.441 145.728H212.092L211.417 149.724Z" fill="#1C1F34"/>
<path fill-rule="evenodd" clip-rule="evenodd" d="M283.663 149.724H286.964L287.639 145.728H282.988L283.663 149.724Z" stroke="#1C1F34" stroke-width="2.025" stroke-linecap="round" stroke-linejoin="round"/>
<path fill-rule="evenodd" clip-rule="evenodd" d="M211.417 149.724H208.117L207.441 145.728H212.092L211.417 149.724Z" stroke="#1C1F34" stroke-width="2.025" stroke-linecap="round" stroke-linejoin="round"/>
<path fill-rule="evenodd" clip-rule="evenodd" d="M318.336 149.16H347.313V126.818H318.336V149.16Z" fill="#E1BFAF"/>
<path fill-rule="evenodd" clip-rule="evenodd" d="M329.815 126.14V129.291V130.223V130.827L330.314 131.617L330.815 130.827L331.315 131.617L331.816 130.827L332.318 131.617L332.819 130.827L333.32 131.617L333.82 130.827L334.322 131.617L334.825 130.827L335.33 131.617L335.835 130.827V130.223V129.069V126.14H329.815Z" fill="white"/>
<path fill-rule="evenodd" clip-rule="evenodd" d="M318.336 149.16H347.313V126.818H318.336V149.16Z" stroke="#1C1F34" stroke-width="2.025" stroke-linecap="round" stroke-linejoin="round"/>
<mask id="path-116-outside-1_0_609" maskUnits="userSpaceOnUse" x="263.327" y="95.9073" width="61" height="49" fill="black">
<rect fill="white" x="263.327" y="95.9073" width="61" height="49"/>
<path fill-rule="evenodd" clip-rule="evenodd" d="M317.564 111.486C316.32 111.486 315.215 111.834 314.239 112.467C314.362 111.866 314.43 111.253 314.43 110.629C314.43 103.05 305.148 96.9073 293.699 96.9073C282.249 96.9073 272.968 103.05 272.968 110.629C272.968 111.251 273.033 111.864 273.155 112.465C272.18 111.833 271.076 111.486 269.833 111.486C263.329 111.486 264.391 118.159 264.391 118.159C264.75 121.334 268.398 127.811 268.731 142.467C268.75 143.314 269.435 143.991 270.277 143.991H293.699H317.12C317.962 143.991 318.647 143.314 318.667 142.467C319 127.811 322.647 121.334 323.006 118.159C323.006 118.159 324.068 111.486 317.564 111.486"/>
</mask>
<path fill-rule="evenodd" clip-rule="evenodd" d="M317.564 111.486C316.32 111.486 315.215 111.834 314.239 112.467C314.362 111.866 314.43 111.253 314.43 110.629C314.43 103.05 305.148 96.9073 293.699 96.9073C282.249 96.9073 272.968 103.05 272.968 110.629C272.968 111.251 273.033 111.864 273.155 112.465C272.18 111.833 271.076 111.486 269.833 111.486C263.329 111.486 264.391 118.159 264.391 118.159C264.75 121.334 268.398 127.811 268.731 142.467C268.75 143.314 269.435 143.991 270.277 143.991H293.699H317.12C317.962 143.991 318.647 143.314 318.667 142.467C319 127.811 322.647 121.334 323.006 118.159C323.006 118.159 324.068 111.486 317.564 111.486" fill="url(#paint1_linear_0_609)"/>
<path d="M314.239 112.467L313.578 112.333L313.258 113.909L314.607 113.033L314.239 112.467ZM273.155 112.465L272.788 113.031L274.134 113.903L273.816 112.331L273.155 112.465ZM264.391 118.159L265.062 118.083L265.06 118.068L265.058 118.053L264.391 118.159ZM268.731 142.467L268.056 142.482L268.056 142.483L268.731 142.467ZM318.667 142.467L319.342 142.483L319.342 142.482L318.667 142.467ZM323.006 118.159L322.34 118.053L322.337 118.068L322.336 118.083L323.006 118.159ZM317.564 110.811C316.186 110.811 314.954 111.199 313.872 111.901L314.607 113.033C315.476 112.469 316.454 112.161 317.564 112.161V110.811ZM314.901 112.602C315.031 111.96 315.105 111.302 315.105 110.629H313.755C313.755 111.203 313.692 111.771 313.578 112.333L314.901 112.602ZM315.105 110.629C315.105 106.541 312.602 102.926 308.73 100.363C304.854 97.7973 299.537 96.2323 293.699 96.2323V97.5823C299.31 97.5823 304.359 99.0887 307.985 101.489C311.617 103.893 313.755 107.138 313.755 110.629H315.105ZM293.699 96.2323C287.86 96.2323 282.544 97.7973 278.667 100.363C274.795 102.926 272.293 106.541 272.293 110.629H273.643C273.643 107.138 275.781 103.893 279.412 101.489C283.039 99.0887 288.088 97.5823 293.699 97.5823V96.2323ZM272.293 110.629C272.293 111.299 272.363 111.956 272.493 112.598L273.816 112.331C273.703 111.771 273.643 111.204 273.643 110.629H272.293ZM273.522 111.898C272.44 111.198 271.21 110.811 269.833 110.811V112.161C270.942 112.161 271.919 112.469 272.788 113.031L273.522 111.898ZM269.833 110.811C268.087 110.811 266.782 111.261 265.828 111.993C264.878 112.722 264.336 113.685 264.032 114.612C263.729 115.535 263.654 116.445 263.652 117.114C263.651 117.451 263.668 117.732 263.686 117.932C263.695 118.032 263.704 118.112 263.711 118.169C263.715 118.197 263.718 118.219 263.72 118.235C263.721 118.243 263.722 118.25 263.723 118.255C263.723 118.257 263.724 118.259 263.724 118.261C263.724 118.262 263.724 118.263 263.724 118.263C263.724 118.264 263.724 118.264 263.724 118.264C263.724 118.264 263.724 118.265 264.391 118.159C265.058 118.053 265.058 118.053 265.058 118.053C265.058 118.053 265.058 118.053 265.058 118.053C265.058 118.054 265.058 118.054 265.058 118.054C265.058 118.054 265.058 118.053 265.058 118.053C265.057 118.051 265.057 118.048 265.056 118.044C265.055 118.035 265.053 118.019 265.05 117.999C265.045 117.958 265.038 117.894 265.03 117.812C265.016 117.647 265.001 117.407 265.002 117.118C265.004 116.536 265.07 115.778 265.314 115.033C265.558 114.292 265.969 113.587 266.65 113.064C267.326 112.545 268.327 112.161 269.833 112.161V110.811ZM263.72 118.235C263.819 119.104 264.137 120.169 264.529 121.435C264.928 122.723 265.423 124.271 265.917 126.177C266.904 129.98 267.891 135.211 268.056 142.482L269.405 142.452C269.238 135.066 268.234 129.731 267.224 125.838C266.72 123.895 266.215 122.313 265.819 121.035C265.416 119.736 265.143 118.801 265.062 118.083L263.72 118.235ZM268.056 142.483C268.084 143.69 269.062 144.666 270.277 144.666V143.316C269.808 143.316 269.417 142.938 269.405 142.452L268.056 142.483ZM270.277 144.666H293.699V143.316H270.277V144.666ZM293.699 144.666H317.12V143.316H293.699V144.666ZM317.12 144.666C318.335 144.666 319.314 143.69 319.342 142.483L317.992 142.452C317.981 142.938 317.59 143.316 317.12 143.316V144.666ZM319.342 142.482C319.507 135.211 320.493 129.98 321.48 126.177C321.974 124.271 322.469 122.723 322.868 121.435C323.261 120.169 323.579 119.104 323.677 118.235L322.336 118.083C322.254 118.801 321.982 119.736 321.579 121.035C321.183 122.313 320.677 123.895 320.173 125.838C319.163 129.731 318.16 135.066 317.992 142.452L319.342 142.482ZM323.006 118.159C323.673 118.265 323.673 118.264 323.673 118.264C323.673 118.264 323.673 118.263 323.673 118.263C323.673 118.263 323.673 118.262 323.674 118.261C323.674 118.259 323.674 118.257 323.675 118.255C323.675 118.25 323.676 118.243 323.677 118.235C323.68 118.219 323.683 118.197 323.686 118.168C323.694 118.112 323.703 118.032 323.712 117.932C323.73 117.732 323.747 117.451 323.746 117.114C323.743 116.445 323.669 115.535 323.366 114.612C323.061 113.685 322.519 112.722 321.569 111.993C320.615 111.261 319.31 110.811 317.564 110.811V112.161C319.07 112.161 320.071 112.545 320.747 113.064C321.428 113.587 321.84 114.292 322.083 115.033C322.327 115.778 322.394 116.536 322.396 117.118C322.397 117.407 322.382 117.647 322.367 117.812C322.36 117.894 322.352 117.958 322.347 117.999C322.344 118.02 322.342 118.035 322.341 118.044C322.34 118.048 322.34 118.051 322.34 118.053C322.34 118.054 322.34 118.054 322.34 118.054C322.34 118.054 322.34 118.054 322.34 118.054C322.34 118.053 322.34 118.053 322.34 118.053C322.34 118.053 322.34 118.053 323.006 118.159Z" fill="black" style="mix-blend-mode:overlay" mask="url(#path-116-outside-1_0_609)"/>
<g opacity="0.6">
<path fill-rule="evenodd" clip-rule="evenodd" d="M279.079 139.08H308.319V135.626H279.079V139.08Z" fill="black" style="mix-blend-mode:soft-light"/>
</g>
<path fill-rule="evenodd" clip-rule="evenodd" d="M272.229 144.67L272.77 149.787H274.629L276.721 144.67" fill="#E1BFAF"/>
<path fill-rule="evenodd" clip-rule="evenodd" d="M315.169 144.67L314.627 149.787H312.768L310.676 144.67" fill="#E1BFAF"/>
<path d="M272.229 144.67L272.77 149.787H274.629L276.721 144.67" stroke="#1C1F34" stroke-width="2.025" stroke-linecap="round" stroke-linejoin="round"/>
<path d="M293.699 144.59H270.277C269.435 143.991 268.75 143.314 268.731 142.468C268.398 127.811 264.75 121.334 264.391 118.158C264.391 118.158 263.329 111.486 269.833 111.486C276.337 111.486 279.079 120.926 279.079 131.602V135.686H293.699" stroke="#1C1F34" stroke-width="2.025" stroke-linecap="round" stroke-linejoin="round"/>
<path d="M279.079 135.686V143.992" stroke="#1C1F34" stroke-width="2.025" stroke-linecap="round" stroke-linejoin="round"/>
<path d="M293.699 96.91C293.699 96.91 272.968 96.3329 272.968 111.78" stroke="#1C1F34" stroke-width="2.025" stroke-linecap="round" stroke-linejoin="round"/>
<path d="M315.169 144.67L314.627 149.787H312.768L310.676 144.67" stroke="#1C1F34" stroke-width="2.025" stroke-linecap="round" stroke-linejoin="round"/>
<path d="M293.699 144.59H317.12C317.962 143.991 318.647 143.314 318.667 142.468C319 127.811 322.647 121.334 323.006 118.158C323.006 118.158 324.068 111.486 317.564 111.486C311.06 111.486 308.319 120.926 308.319 131.602V135.686H293.699" stroke="#1C1F34" stroke-width="2.025" stroke-linecap="round" stroke-linejoin="round"/>
<path d="M308.791 124.35C308.16 122.965 305.563 123.028 305.563 123.028H281.834C281.834 123.028 279.237 122.965 278.606 124.35" stroke="#1C1F34" stroke-width="2.025" stroke-linecap="round" stroke-linejoin="round"/>
<path d="M308.319 135.686V143.992" stroke="#1C1F34" stroke-width="2.025" stroke-linecap="round" stroke-linejoin="round"/>
<path d="M293.699 96.91C293.699 96.91 314.43 96.3329 314.43 111.78" stroke="#1C1F34" stroke-width="2.025" stroke-linecap="round" stroke-linejoin="round"/>
<path fill-rule="evenodd" clip-rule="evenodd" d="M228.882 149.724H232.182L232.858 144.37H228.207L228.882 149.724Z" fill="#E1BFAF"/>
<path fill-rule="evenodd" clip-rule="evenodd" d="M126.106 149.724H129.406L130.081 145.652H125.43L126.106 149.724Z" fill="#E1BFAF"/>
<path fill-rule="evenodd" clip-rule="evenodd" d="M225.829 118.743V109.568C225.829 107.724 224.626 106.131 222.928 105.699C210.371 102.505 197.505 100.555 179.144 100.555C160.783 100.555 147.916 102.505 135.36 105.699C133.662 106.131 132.46 107.724 132.46 109.568V118.743" fill="#565B7A"/>
<path fill-rule="evenodd" clip-rule="evenodd" d="M222.19 118.743V116.989C222.19 115.458 221.433 113.927 219.919 113.588C214.445 112.365 209.735 111.657 202.788 111.657C195.841 111.657 191.131 112.365 185.658 113.588C184.24 113.905 183.486 115.269 183.396 116.698V118.743" fill="white"/>
<path fill-rule="evenodd" clip-rule="evenodd" d="M136.098 118.743V116.989C136.098 115.458 136.855 113.927 138.369 113.588C143.842 112.365 148.553 111.657 155.499 111.657C162.446 111.657 167.157 112.365 172.63 113.588C174.048 113.905 174.802 115.269 174.892 116.698V118.743" fill="white"/>
<path fill-rule="evenodd" clip-rule="evenodd" d="M123.404 145.727H234.883V135.979H123.404V145.727Z" fill="#565B7A"/>
<path fill-rule="evenodd" clip-rule="evenodd" d="M123.404 145.727H234.883V135.979H123.404V145.727Z" stroke="#1C1F34" stroke-width="2.025" stroke-linecap="round" stroke-linejoin="round"/>
<path fill-rule="evenodd" clip-rule="evenodd" d="M233.533 135.979H124.755V128.465C124.755 125.053 127.507 122.287 130.902 122.287H227.386C230.781 122.287 233.533 125.053 233.533 128.465V135.979Z" fill="#434D9E"/>
<path fill-rule="evenodd" clip-rule="evenodd" d="M233.533 135.979H124.755V128.465C124.755 125.053 127.507 122.287 130.902 122.287H227.386C230.781 122.287 233.533 125.053 233.533 128.465V135.979Z" stroke="#1C1F34" stroke-width="2.025" stroke-linecap="round" stroke-linejoin="round"/>
<path fill-rule="evenodd" clip-rule="evenodd" d="M228.207 122.047H130.081V122.047C130.081 120.222 131.552 118.743 133.367 118.743H224.921C226.736 118.743 228.207 120.222 228.207 122.047Z" fill="white"/>
<path fill-rule="evenodd" clip-rule="evenodd" d="M228.207 122.047H130.081V122.047C130.081 120.222 131.552 118.743 133.367 118.743H224.921C226.736 118.743 228.207 120.222 228.207 122.047V122.047Z" stroke="#1C1F34" stroke-width="2.025" stroke-linecap="round" stroke-linejoin="round"/>
<path fill-rule="evenodd" clip-rule="evenodd" d="M228.882 149.724H232.182L232.858 145.728H228.207L228.882 149.724Z" stroke="#1C1F34" stroke-width="2.025" stroke-linecap="round" stroke-linejoin="round"/>
<path fill-rule="evenodd" clip-rule="evenodd" d="M126.106 149.724H129.406L130.081 145.652H125.43L126.106 149.724Z" stroke="#1C1F34" stroke-width="2.025" stroke-linecap="round" stroke-linejoin="round"/>
<path d="M225.829 118.743V109.568C225.829 107.724 224.626 106.131 222.928 105.699C210.371 102.505 197.505 100.555 179.144 100.555C160.783 100.555 147.916 102.505 135.36 105.699C133.662 106.131 132.46 107.724 132.46 109.568V118.743" stroke="#1C1F34" stroke-width="2.025" stroke-linecap="round" stroke-linejoin="round"/>
<path d="M222.19 118.743V116.989C222.19 115.458 221.433 113.927 219.919 113.588C214.445 112.365 209.735 111.657 202.788 111.657C195.841 111.657 191.131 112.365 185.658 113.588C184.24 113.905 183.486 115.269 183.396 116.698V118.743" stroke="#1C1F34" stroke-width="2.025" stroke-linecap="round" stroke-linejoin="round"/>
<path d="M136.098 118.743V116.989C136.098 115.458 136.855 113.927 138.369 113.588C143.842 112.365 148.553 111.657 155.499 111.657C162.446 111.657 167.157 112.365 172.63 113.588C174.048 113.905 174.802 115.269 174.892 116.698V118.743" stroke="#1C1F34" stroke-width="2.025" stroke-linecap="round" stroke-linejoin="round"/>
<path fill-rule="evenodd" clip-rule="evenodd" d="M89.2175 149.724H91.8425L93.5207 145.652H90.2609L89.2175 149.724Z" fill="#1C1F34"/>
<path fill-rule="evenodd" clip-rule="evenodd" d="M155.443 130.792H94.0678L90.261 145.652H93.5208L97.9199 134.98H151.59L155.989 145.652H159.249L155.443 130.792Z" fill="#B58B75"/>
<path fill-rule="evenodd" clip-rule="evenodd" d="M155.989 145.652L157.668 149.724H160.293L159.25 145.652H155.989Z" fill="#1C1F34"/>
<path fill-rule="evenodd" clip-rule="evenodd" d="M162.373 127.282H87.1381V127.282C87.1381 129.221 88.7008 130.792 90.6288 130.792H158.881C160.81 130.792 162.373 129.221 162.373 127.282Z" fill="#B58B75"/>
<path fill-rule="evenodd" clip-rule="evenodd" d="M162.373 127.282H87.1381V127.282C87.1381 129.221 88.7008 130.792 90.6288 130.792H158.881C160.81 130.792 162.373 129.221 162.373 127.282V127.282Z" stroke="#1C1F34" stroke-width="2.025" stroke-linecap="round" stroke-linejoin="round"/>
<g opacity="0.6">
<path fill-rule="evenodd" clip-rule="evenodd" d="M92.5893 136.563H97.2679L97.9203 134.98H151.59L152.243 136.563H156.921L155.5 131.016H94.0102L92.5893 136.563Z" fill="black" style="mix-blend-mode:soft-light"/>
</g>
<path fill-rule="evenodd" clip-rule="evenodd" d="M157.668 149.724H160.293L155.443 130.792H94.0679L89.2177 149.724H91.842L97.9199 135.979H151.59L157.668 149.724Z" stroke="#1C1F34" stroke-width="2.025" stroke-linecap="round" stroke-linejoin="round"/>
<path d="M95.5947 141.463H153.916" stroke="#1C1F34" stroke-width="2.025" stroke-linecap="round" stroke-linejoin="round"/>
<path fill-rule="evenodd" clip-rule="evenodd" d="M251.154 149.724H281.752V118.963H251.154V149.724Z" fill="#E1BFAF"/>
<path fill-rule="evenodd" clip-rule="evenodd" d="M263.275 119.095V122.423V123.407V124.044L263.802 124.879L264.331 124.044L264.86 124.879L265.388 124.044L265.918 124.879L266.447 124.044L266.976 124.879L267.504 124.044L268.034 124.879L268.566 124.044L269.099 124.879L269.631 124.044V123.407V122.188V119.095H263.275Z" fill="white"/>
<path fill-rule="evenodd" clip-rule="evenodd" d="M251.154 149.724H281.752V118.963H251.154V149.724Z" stroke="#1C1F34" stroke-width="2.025" stroke-linecap="round" stroke-linejoin="round"/>
<path opacity="0.3" fill-rule="evenodd" clip-rule="evenodd" d="M277.415 138.08L275.977 136.073L274.54 138.08H275.17V144.269H276.785V138.08H277.415Z" fill="#1C1F34"/>
<path opacity="0.3" fill-rule="evenodd" clip-rule="evenodd" d="M273.96 138.08L272.523 136.073L271.085 138.08H271.716V144.269H273.33V138.08H273.96Z" fill="#1C1F34"/>
<path opacity="0.3" fill-rule="evenodd" clip-rule="evenodd" d="M270.806 145.072H277.694V144.187H270.806V145.072Z" fill="#1C1F34"/>
<path fill-rule="evenodd" clip-rule="evenodd" d="M117.926 89.9115C117.926 89.9115 119.293 91.974 117.926 93.6041C116.558 95.2341 107.963 96.1262 107.963 96.1262C107.963 96.1262 96.0089 95.5383 94.8669 94.1764C93.7243 92.8138 93.2705 92.4791 94.0491 90.6651C94.8278 88.8517 97.3319 81.3999 97.3319 81.3999C97.3319 81.3999 98.3746 76.5477 103.629 76.5477C108.883 76.5477 113.221 76.084 114.523 80.1324C115.826 84.1814 117.926 89.9115 117.926 89.9115" fill="white"/>
<mask id="path-161-outside-2_0_609" maskUnits="userSpaceOnUse" x="94.754" y="91.5024" width="23" height="7" fill="black">
<rect fill="white" x="94.754" y="91.5024" width="23" height="7"/>
<path fill-rule="evenodd" clip-rule="evenodd" d="M111.8 92.5024H100.512C100.512 92.5024 97.1317 92.7027 95.754 95.2343L99.3657 97.5392L114.033 97.2711L116.558 95.2343C115.181 92.7027 111.8 92.5024 111.8 92.5024"/>
</mask>
<path fill-rule="evenodd" clip-rule="evenodd" d="M111.8 92.5024H100.512C100.512 92.5024 97.1317 92.7027 95.754 95.2343L99.3657 97.5392L114.033 97.2711L116.558 95.2343C115.181 92.7027 111.8 92.5024 111.8 92.5024" fill="url(#paint2_linear_0_609)"/>
<path d="M100.512 92.5024V91.8274H100.492L100.472 91.8286L100.512 92.5024ZM95.754 95.2343L95.1611 94.9117L94.8602 95.4647L95.3909 95.8033L95.754 95.2343ZM99.3657 97.5392L99.0025 98.1082L99.1743 98.2179L99.378 98.2141L99.3657 97.5392ZM114.033 97.2711L114.045 97.946L114.277 97.9417L114.457 97.7965L114.033 97.2711ZM116.558 95.2343L116.982 95.7597L117.42 95.4063L117.151 94.9118L116.558 95.2343ZM111.8 91.8274H100.512V93.1774H111.8V91.8274ZM100.512 92.5024C100.472 91.8286 100.472 91.8286 100.472 91.8286C100.472 91.8286 100.472 91.8286 100.471 91.8286C100.471 91.8287 100.47 91.8287 100.47 91.8287C100.469 91.8288 100.468 91.8289 100.466 91.829C100.463 91.8291 100.459 91.8294 100.455 91.8297C100.446 91.8304 100.434 91.8313 100.418 91.8326C100.388 91.8351 100.345 91.8391 100.291 91.8449C100.184 91.8567 100.032 91.8763 99.848 91.908C99.4805 91.9714 98.9752 92.0843 98.421 92.2839C97.3238 92.6792 95.9604 93.4429 95.1611 94.9117L96.3469 95.557C96.9253 94.4941 97.9411 93.8918 98.8786 93.554C99.3418 93.3871 99.7678 93.2918 100.077 93.2384C100.231 93.2119 100.355 93.196 100.438 93.1869C100.479 93.1824 100.51 93.1796 100.53 93.1779C100.54 93.1771 100.547 93.1766 100.55 93.1763C100.552 93.1762 100.553 93.1761 100.554 93.1761C100.554 93.1761 100.554 93.1761 100.554 93.1761C100.553 93.1761 100.553 93.1761 100.553 93.1762C100.553 93.1762 100.553 93.1762 100.553 93.1762C100.553 93.1762 100.552 93.1762 100.512 92.5024ZM95.3909 95.8033L99.0025 98.1082L99.7288 96.9702L96.1172 94.6653L95.3909 95.8033ZM99.378 98.2141L114.045 97.946L114.021 96.5962L99.3533 96.8644L99.378 98.2141ZM114.457 97.7965L116.982 95.7597L116.134 94.7089L113.609 96.7457L114.457 97.7965ZM117.151 94.9118C116.352 93.4429 114.989 92.6793 113.892 92.2839C113.338 92.0843 112.832 91.9714 112.465 91.908C112.28 91.8763 112.129 91.8567 112.022 91.8449C111.968 91.8391 111.925 91.8351 111.895 91.8326C111.879 91.8313 111.867 91.8304 111.858 91.8297C111.853 91.8294 111.85 91.8291 111.847 91.829C111.845 91.8289 111.844 91.8288 111.843 91.8287C111.842 91.8287 111.842 91.8287 111.841 91.8286C111.841 91.8286 111.841 91.8286 111.841 91.8286C111.841 91.8286 111.84 91.8286 111.8 92.5024C111.76 93.1762 111.76 93.1762 111.76 93.1762C111.76 93.1762 111.76 93.1762 111.76 93.1762C111.759 93.1761 111.759 93.1761 111.759 93.1761C111.759 93.1761 111.759 93.1761 111.759 93.1761C111.759 93.1761 111.761 93.1762 111.762 93.1763C111.766 93.1766 111.773 93.1771 111.783 93.1779C111.802 93.1796 111.833 93.1824 111.875 93.1869C111.958 93.196 112.081 93.2119 112.235 93.2384C112.545 93.2918 112.971 93.3871 113.434 93.554C114.371 93.8918 115.387 94.4941 115.965 95.5568L117.151 94.9118Z" fill="black" style="mix-blend-mode:overlay" mask="url(#path-161-outside-2_0_609)"/>
<path fill-rule="evenodd" clip-rule="evenodd" d="M107.963 123.056V120.274V97.6867H104.349V120.274V123.056C99.6096 123.103 96.6469 125.011 96.6469 127.283H115.665C115.665 124.763 112.703 123.103 107.963 123.056" fill="#DEDEDE"/>
<path fill-rule="evenodd" clip-rule="evenodd" d="M107.963 123.056V120.274V97.6867H104.349V120.274V123.056C99.6096 123.103 96.6469 125.011 96.6469 127.283H115.665C115.665 124.763 112.703 123.103 107.963 123.056Z" stroke="#1C1F34" stroke-width="2.025" stroke-linecap="round" stroke-linejoin="round"/>
<path d="M91.9217 90.6654L95.7542 95.2338C97.0589 96.7892 98.9795 97.6867 101.003 97.6867H106.156" stroke="#1C1F34" stroke-width="2.025" stroke-linecap="round" stroke-linejoin="round"/>
<path d="M120.391 90.6654L116.558 95.2338C115.254 96.7892 113.333 97.6867 111.309 97.6867H106.156" stroke="#1C1F34" stroke-width="2.025" stroke-linecap="round" stroke-linejoin="round"/>
<path d="M93.476 91.8006C93.476 91.8006 95.1225 89.0483 97.3314 81.3997C98.699 76.6656 102.096 76.5475 102.096 76.5475H110.217C110.217 76.5475 113.613 76.6656 114.981 81.3997C117.19 89.0483 118.836 91.8006 118.836 91.8006" stroke="#1C1F34" stroke-width="2.025" stroke-linecap="round" stroke-linejoin="round"/>
<path fill-rule="evenodd" clip-rule="evenodd" d="M95.7542 95.2341C97.1318 92.7025 100.512 92.5022 100.512 92.5022H111.801C111.801 92.5022 115.181 92.7025 116.558 95.2341C116.558 95.2341 114.833 97.6871 109.106 97.6871C103.379 97.6871 101.288 97.6443 99.0389 97.3978C96.7901 97.1514 95.7542 95.2341 95.7542 95.2341Z" stroke="#1C1F34" stroke-width="2.025" stroke-linecap="round" stroke-linejoin="round"/>
<path d="M104.349 123.056H107.963" stroke="#1C1F34" stroke-width="2.025" stroke-linecap="round" stroke-linejoin="round"/>
<rect width="101.56" height="1.31288" rx="0.656442" transform="matrix(-1 0 0 1 272.826 159.687)" fill="#1F2857"/>
<rect width="11.184" height="1.31288" rx="0.656442" transform="matrix(-1 0 0 1 167.041 159.687)" fill="#1F2857"/>
<rect width="3.92301" height="1.31288" rx="0.656442" transform="matrix(-1 0 0 1 279.072 159.687)" fill="#1F2857"/>
<path fill-rule="evenodd" clip-rule="evenodd" d="M238.552 73.1435C238.552 73.1435 240.979 74.2656 243.503 74.2656C246.026 74.2656 247.728 72.8044 247.728 72.8044L248.058 76.8178V80.2764H238.154V76.8178L238.552 73.1435Z" fill="#FFD3B2"/>
<path fill-rule="evenodd" clip-rule="evenodd" d="M234.795 113.765H251.485L252.186 121.394L253.069 130.95L255.291 156.678C255.291 156.678 258.592 156.1 258.592 160.018H249.919L247.017 138.594L243.14 123.822L239.289 138.405L236.361 160.018H228.011C228.011 160.018 227.496 156.678 230.619 156.678C230.619 156.678 231.784 143.715 232.252 136.891C232.572 132.216 233.691 122.417 233.691 122.417L234.795 113.765Z" fill="#282E53"/>
<path fill-rule="evenodd" clip-rule="evenodd" d="M259.44 84.1818C259.44 84.1818 257.111 79.8919 252.353 79.8919L248.058 78.9313C248.058 78.9313 246.102 79.8362 243.14 79.8919C240.178 79.8362 238.223 78.9313 238.223 78.9313L233.462 79.8919C229.677 81.4807 228.194 82.9051 228.194 82.9051C228.194 82.9051 226.452 85.428 226.002 86.7512C225.256 88.9447 225.178 93.4553 225.178 93.4553C225.876 99.0859 231.803 94.907 231.803 94.907V91.2517L233.927 102.243L234.472 113.915C234.472 113.915 235.191 116.326 243.14 116.326C251.089 116.326 251.809 113.915 251.809 113.915L252.353 102.243L253.878 92.154V94.907C253.878 94.907 260.96 98.7711 260.96 93.4553L259.44 84.1818Z" fill="#434D9E"/>
<rect x="231.544" y="94.4866" width="0.653835" height="2.18216" fill="#C99073"/>
<rect x="253.774" y="94.4866" width="0.653835" height="2.18216" fill="#C99073"/>
<path fill-rule="evenodd" clip-rule="evenodd" d="M237.472 90.0614C237.238 90.0614 237.099 89.9751 237.099 89.7062V85.8281C237.099 85.7413 237.025 85.6783 236.944 85.6917C236.699 85.7328 236.228 85.8101 236.024 85.8435L235.928 85.8594C235.874 85.8681 235.817 85.9178 235.817 85.9905L235.817 89.8623C235.817 91.0431 236.659 91.1549 237.132 91.1549C237.432 91.1549 237.643 91.1119 237.756 91.0806C237.822 91.0625 237.855 91.0073 237.855 90.9495V90.1755C237.855 90.1051 237.795 90.0241 237.701 90.0411C237.64 90.0523 237.563 90.0614 237.472 90.0614ZM245.377 86.8593C245.801 86.8189 246.073 86.7381 246.221 86.6913C246.31 86.6628 246.374 86.726 246.391 86.789C246.392 86.7946 246.398 86.8162 246.408 86.8487L246.408 86.8488L246.408 86.8488L246.408 86.8488L246.408 86.8489C246.442 86.9707 246.52 87.2454 246.56 87.4131C246.579 87.4921 246.53 87.55 246.476 87.5747C246.398 87.6105 246.284 87.6466 246.152 87.6832C246.298 87.94 246.352 88.2144 246.352 88.4357C246.352 89.0662 245.967 89.9226 244.553 89.9226H244.423C244.127 89.9226 243.877 89.8849 243.665 89.8199C243.612 89.8703 243.571 89.9398 243.571 90.035C243.571 90.2016 243.706 90.3232 243.843 90.3232L244.947 90.3233C245.726 90.3233 246.405 90.7222 246.405 91.7753C246.405 92.7637 245.617 93.1619 244.488 93.1619C243.287 93.1619 242.573 92.7943 242.573 91.8343C242.573 91.3287 242.905 90.918 242.905 90.918C242.905 90.918 242.598 90.6574 242.598 90.1494C242.598 89.7606 242.793 89.4945 242.937 89.3514C242.707 89.0696 242.624 88.7284 242.624 88.4357C242.624 87.8443 243.012 86.8745 244.488 86.8723L244.505 86.8727C244.602 86.8755 245.071 86.8888 245.377 86.8593ZM249.669 86.8593C250.092 86.8189 250.364 86.7381 250.512 86.6913C250.601 86.6628 250.665 86.726 250.682 86.789C250.683 86.7946 250.689 86.8162 250.699 86.8488C250.733 86.9704 250.811 87.2454 250.851 87.4132C250.87 87.4922 250.821 87.55 250.767 87.5747C250.689 87.6106 250.575 87.6466 250.443 87.6832C250.589 87.94 250.643 88.2144 250.643 88.4357C250.643 89.0662 250.258 89.9226 248.844 89.9226H248.714C248.418 89.9226 248.168 89.8849 247.956 89.8199C247.903 89.8703 247.862 89.9399 247.862 90.035C247.862 90.2016 247.997 90.3232 248.134 90.3232L249.238 90.3233C250.017 90.3233 250.696 90.7222 250.696 91.7753C250.696 92.7637 249.908 93.1619 248.779 93.1619C247.578 93.1619 246.864 92.7943 246.864 91.8343C246.864 91.3287 247.196 90.918 247.196 90.918C247.196 90.918 246.889 90.6574 246.889 90.1494C246.889 89.7606 247.084 89.4945 247.228 89.3514C246.998 89.0696 246.915 88.7285 246.915 88.4357C246.915 87.8443 247.303 86.8745 248.779 86.8723L248.796 86.8727C248.893 86.8755 249.362 86.8888 249.669 86.8593ZM248.8 87.649C248.479 87.651 248.187 87.9144 248.187 88.3985C248.187 88.8499 248.426 89.1433 248.779 89.1449C249.132 89.1433 249.371 88.8499 249.371 88.3985C249.371 87.9144 249.121 87.651 248.8 87.649ZM249.563 91.7374C249.563 91.4614 249.411 91.2439 249.093 91.2439C248.55 91.2439 248.244 91.2444 248.244 91.2444C248.244 91.2444 248.043 91.439 248.043 91.7966C248.043 92.0153 248.166 92.2663 248.814 92.2663C249.439 92.2663 249.563 91.9874 249.563 91.7374ZM243.896 88.3985C243.896 87.9144 244.188 87.651 244.509 87.649C244.83 87.651 245.08 87.9144 245.08 88.3985C245.08 88.8498 244.841 89.1433 244.488 89.1449C244.135 89.1433 243.896 88.8498 243.896 88.3985ZM245.272 91.7374C245.272 91.4614 245.12 91.2438 244.802 91.2438C244.259 91.2438 243.953 91.2444 243.953 91.2444C243.953 91.2444 243.752 91.439 243.752 91.7966C243.752 92.0153 243.875 92.2663 244.523 92.2663C245.148 92.2663 245.272 91.9874 245.272 91.7374ZM240.692 87.0772C240.692 87.0171 240.744 86.9485 240.824 86.9485H241.842C241.917 86.9485 241.974 87.011 241.974 87.0797V90.9407C241.974 91.0433 241.89 91.0799 241.845 91.0799H240.981C240.903 91.0799 240.865 91.0192 240.855 90.9824C240.848 90.9554 240.765 90.659 240.719 90.499C240.441 90.7723 239.951 91.1552 239.392 91.1552C238.51 91.1552 238.325 90.5109 238.325 89.8464V87.0822C238.325 87.0003 238.393 86.9485 238.453 86.9485H239.472C239.547 86.9485 239.606 87.0074 239.606 87.0842V89.6253C239.606 89.9349 239.707 90.0504 239.935 90.0504C240.295 90.0504 240.599 89.7367 240.691 89.6304L240.692 87.0772Z" fill="white"/>
<path fill-rule="evenodd" clip-rule="evenodd" d="M243.151 73.24C250.168 73.24 250.041 69.5934 250.591 64.18C251.141 58.7666 248.295 56.6556 243.151 56.6556C238.007 56.6556 234.932 59.024 235.453 64.18C235.973 69.336 236.134 73.24 243.151 73.24Z" fill="#74605F" stroke="#1C1F34" stroke-width="1.64025"/>
<path d="M243.14 124.799L246.992 138.405L249.919 160.017H257.945C257.945 160.017 258.342 156.383 255.365 156.709L252.509 122.693L251.539 114.731L252.353 101.365C252.353 101.365 254.118 92.6165 254.118 87.2649" stroke="#1C1F34" stroke-width="1.64025" stroke-linecap="round" stroke-linejoin="round"/>
<path d="M251.813 157.718C252.731 157.132 254.856 156.754 257.38 157.718" stroke="#1C1F34" stroke-width="0.98415" stroke-linecap="round" stroke-linejoin="round"/>
<path d="M242.832 124.799L238.98 138.405L236.053 160.017H228.027C228.027 160.017 227.629 156.383 230.607 156.709L233.463 122.693L234.433 114.731L233.619 101.365C233.619 101.365 231.854 92.6165 231.854 87.2649" stroke="#1C1F34" stroke-width="1.64025" stroke-linecap="round" stroke-linejoin="round"/>
<path d="M234.159 157.718C233.241 157.132 231.116 156.754 228.592 157.718" stroke="#1C1F34" stroke-width="0.98415" stroke-linecap="round" stroke-linejoin="round"/>
<path d="M240.235 124.143H246.045" stroke="#1C1F34" stroke-width="0.98415" stroke-linecap="round" stroke-linejoin="round"/>
<path d="M238.324 79.4169C233.797 79.4169 231.322 80.6743 229.429 81.3658C227.535 82.0574 226.382 84.8235 225.65 87.6599" stroke="#1C1F34" stroke-width="1.64025" stroke-linecap="round" stroke-linejoin="round"/>
<path fill-rule="evenodd" clip-rule="evenodd" d="M247.243 94.7932C246.634 94.4374 235.011 95.1263 232.517 95.992C231.889 95.992 231.888 96.4706 231.647 94.4902C231.568 94.4952 227.203 94.2225 225.077 92.6912C224.82 94.1012 225.64 95.4448 225.646 96.6126C225.657 99.102 226.087 101.238 227.019 102.327C227.68 103.1 228.641 102.676 231.036 102.676C232.526 102.676 237.053 101.374 241.067 100.257C243.509 99.578 245.933 98.5384 246.87 99.1403C249.35 100.732 249.406 100.465 252.892 99.1403C254.883 98.3836 251.417 94.1339 251.368 93.5095C251.254 92.0536 247.851 95.1491 247.243 94.7932Z" fill="#FFD3B2"/>
<path d="M226.495 84.9684C224.971 88.7964 224.633 94.5002 226.83 101.9C227.836 105.21 246.716 98.9391 246.716 98.9391C246.716 98.9391 246.618 100.433 250.889 99.7721C255.824 99.0087 253.277 94.203 253.277 94.203C251.045 94.5666 250.727 94.3893 251.382 93.5816C252.919 91.686 246.812 94.5871 246.812 94.5871C240.376 94.5915 237.331 95.2499 231.543 96.0891" stroke="#1C1F34" stroke-width="1.64025" stroke-linecap="round" stroke-linejoin="round"/>
<path d="M247.648 79.4169C252.175 79.4169 254.649 80.6743 256.543 81.3658C258.437 82.0574 259.59 84.8235 260.321 87.6599" stroke="#1C1F34" stroke-width="1.64025" stroke-linecap="round" stroke-linejoin="round"/>
<path fill-rule="evenodd" clip-rule="evenodd" d="M238.729 94.7932C239.337 94.4374 250.96 95.1263 253.455 95.992C254.083 95.992 254.084 96.4706 254.324 94.4902C254.403 94.4952 258.769 94.2225 260.895 92.6912C261.152 94.1012 260.403 95.3317 260.397 96.4994C260.385 98.9889 259.884 101.238 258.953 102.327C258.292 103.1 257.331 102.676 254.936 102.676C253.446 102.676 248.919 101.374 244.905 100.257C242.463 99.578 240.039 98.5384 239.101 99.1403C236.622 100.732 234.604 100.465 231.118 99.1403C229.127 98.3836 228.624 95.3046 230.198 94.0967C231.38 93.1898 234.555 94.1339 234.604 93.5095C234.718 92.0536 238.121 95.1491 238.729 94.7932Z" fill="#FFD3B2"/>
<path d="M259.477 84.9693C261.001 88.7973 261.339 94.5011 259.141 101.901C258.135 105.211 239.256 98.94 239.256 98.94C239.256 98.94 237.392 100.433 233.121 99.7716C228.186 99.0082 229.249 94.8984 230.036 94.1359C230.473 93.7127 232.174 94.1312 232.174 94.1312C234.405 94.4948 235.245 94.3901 234.59 93.5824C233.052 91.6869 239.16 94.5879 239.16 94.5879C245.595 94.5923 248.641 95.2508 254.429 96.09" stroke="#1C1F34" stroke-width="1.64025" stroke-linecap="round" stroke-linejoin="round"/>
<path d="M248.524 78.9314C248.524 78.9314 247.728 77.5087 247.728 75.7917" stroke="#1C1F34" stroke-width="1.64025" stroke-linecap="round" stroke-linejoin="round"/>
<path d="M237.756 78.9314C237.756 78.9314 238.552 77.5087 238.552 75.7917" stroke="#1C1F34" stroke-width="1.64025" stroke-linecap="round" stroke-linejoin="round"/>
<path d="M247.471 75.0289C248.145 74.5842 248.777 73.9215 249.189 72.9342C249.351 72.5469 249.722 70.65 250.01 68.666" stroke="#1C1F34" stroke-width="1.9683" stroke-linecap="round" stroke-linejoin="round"/>
<path d="M238.577 75.0288C237.905 74.5838 237.274 73.9204 236.862 72.9323C236.701 72.5453 236.343 70.5456 236.061 68.5306" stroke="#1C1F34" stroke-width="1.9683" stroke-linecap="round" stroke-linejoin="round"/>
<ellipse cx="243.07" cy="68.4035" rx="6.76525" ry="7.51759" fill="#FFD3B2"/>
<ellipse rx="0.980752" ry="1.96933" transform="matrix(-0.990268 0.139173 0.139173 0.990268 235.146 68.5323)" stroke="#1C1F34" stroke-width="1.64025" stroke-linecap="round" stroke-linejoin="round"/>
<ellipse rx="1.30767" ry="1.96933" transform="matrix(-0.990268 0.139173 0.139173 0.990268 236.118 68.3959)" fill="#FFD3B2"/>
<ellipse cx="250.826" cy="68.5323" rx="0.980752" ry="1.96933" transform="rotate(8 250.826 68.5323)" stroke="#1C1F34" stroke-width="1.64025" stroke-linecap="round" stroke-linejoin="round"/>
<ellipse cx="249.854" cy="68.3959" rx="1.30767" ry="1.96933" transform="rotate(8 249.854 68.3959)" fill="#FFD3B2"/>
<path fill-rule="evenodd" clip-rule="evenodd" d="M236.231 61.3311C236.882 59.8897 238.353 58.7513 238.353 58.7513C238.353 58.7513 239.375 60.5507 238.889 60.9991C238.596 61.2691 237.471 62.5805 237.285 63.357C236.788 65.4333 236.964 67.8576 236.917 68.4892C236.87 69.1207 236.764 69.2074 236.551 68.4892C236.43 68.0793 236.317 67.9358 236.231 66.7145C236.186 66.0691 235.757 66.1565 235.746 65.467C235.734 64.6758 235.58 62.7724 236.231 61.3311Z" fill="#74605F"/>
<path fill-rule="evenodd" clip-rule="evenodd" d="M249.782 61.3311C249.131 59.8897 247.661 58.7513 247.661 58.7513C247.661 58.7513 246.638 60.5507 247.125 60.9991C247.418 61.2691 248.542 62.5805 248.728 63.357C249.225 65.4333 249.049 67.8576 249.096 68.4892C249.144 69.1207 249.25 69.2074 249.462 68.4892C249.583 68.0793 249.696 67.9358 249.782 66.7145C249.828 66.0691 250.257 66.1565 250.267 65.467C250.28 64.6758 250.434 62.7724 249.782 61.3311Z" fill="#74605F"/>
<path d="M240.698 72.3803C240.698 72.3803 241.904 74.0468 245.308 72.8645" stroke="#1C1F34" stroke-width="0.98415" stroke-linecap="round" stroke-linejoin="round"/>
<path opacity="0.2" d="M245.016 75.6625C242.685 76.5224 243.842 76.4781 241.549 75.8734" stroke="#1C1F34" stroke-width="0.6561" stroke-linecap="round" stroke-linejoin="round"/>
<path fill-rule="evenodd" clip-rule="evenodd" d="M251.133 64.1628C251.133 62.188 251.133 55.9692 243.3 55.9692C235.467 55.9692 235.14 61.5663 235.14 63.9322C235.14 65.1138 239.128 63.6959 243.121 63.706C247.124 63.7161 251.133 65.1514 251.133 64.1628Z" fill="#434D9E" stroke="#1C1F34" stroke-width="1.64025"/>
<rect x="241.351" y="58.595" width="3.92301" height="1.96933" rx="0.6561" fill="white"/>
<path opacity="0.3" fill-rule="evenodd" clip-rule="evenodd" d="M250.677 65.74C250.677 66.5515 246.798 65.118 242.98 65.1348C239.163 65.1517 235.14 66.6888 235.14 65.8087C235.14 64.9285 239.179 63.8633 242.98 63.8465C246.782 63.8297 250.677 64.9286 250.677 65.74Z" fill="#1C1F34" stroke="#1C1F34" stroke-width="0.98415"/>
<path fill-rule="evenodd" clip-rule="evenodd" d="M251.984 64.9836C251.984 66.0335 247.616 64.1788 243.316 64.2006C239.017 64.2224 234.486 66.2111 234.486 65.0724C234.486 63.9337 239.035 61.8991 243.316 61.8773C247.598 61.8556 251.984 63.9337 251.984 64.9836Z" fill="#434D9E" stroke="#1C1F34" stroke-width="0.98415"/>
<ellipse cx="243.313" cy="55.1816" rx="1.30767" ry="0.656442" fill="#1C1F34"/>
<path fill-rule="evenodd" clip-rule="evenodd" d="M192.937 73.1435C192.937 73.1435 195.364 74.2656 197.887 74.2656C200.41 74.2656 202.112 72.8044 202.112 72.8044L202.442 76.8178V80.2764H192.538V76.8178L192.937 73.1435Z" fill="#A1694D"/>
<path fill-rule="evenodd" clip-rule="evenodd" d="M189.179 113.765H205.869L206.57 121.394L207.453 130.95L209.675 156.678C209.675 156.678 212.976 156.1 212.976 160.018H204.303L201.401 138.594L197.524 123.822L193.673 138.405L190.745 160.018H182.396C182.396 160.018 181.881 156.678 185.003 156.678C185.003 156.678 186.168 143.715 186.636 136.891C186.956 132.216 188.076 122.417 188.076 122.417L189.179 113.765Z" fill="#282E53"/>
<path fill-rule="evenodd" clip-rule="evenodd" d="M171.886 97.254C171.886 97.254 169.714 93.7773 169 91.7687C167.709 88.1371 165.871 80.3333 165.871 80.3333C165.871 80.3333 164.286 78.9798 163.52 75.9694C162.753 72.9588 163.672 70.2784 165.461 70.1144C167.248 69.9505 168.285 70.1404 168.285 70.1404L169.027 75.1484C169.027 75.1484 170.357 72.9926 171.829 73.0264C173.302 73.0603 171.908 75.4758 171.908 75.4758L170.011 78.9574C170.011 78.9574 172.888 82.6903 174.541 89.6303L178.311 85.9686L184.886 88.177C184.886 88.177 184.879 92.6873 181.589 94.9094C178.299 97.1315 171.886 97.254 171.886 97.254Z" fill="#A1694D"/>
<path fill-rule="evenodd" clip-rule="evenodd" d="M213.824 84.1818C213.824 84.1818 211.495 79.8919 206.737 79.8919L202.442 78.9313C202.442 78.9313 200.486 79.8362 197.524 79.8919C194.563 79.8362 192.607 78.9313 192.607 78.9313H187.848C184.063 80.5201 182.578 82.9051 182.578 82.9051C182.578 82.9051 180.474 83.7423 179.421 84.4891C178.619 85.0588 177.013 86.8547 177.013 86.8547C177.711 92.4852 182.578 94.3147 182.578 94.3147L186.187 91.2517L188.311 102.243L188.856 113.915C188.856 113.915 189.575 116.326 197.524 116.326C205.473 116.326 206.193 113.915 206.193 113.915L206.737 102.243L208.262 92.154V94.907C208.262 94.907 216.006 98.3438 216.006 93.0281L213.824 84.1818Z" fill="#434D9E"/>
<path d="M186.135 90.9371C183.143 94.1422 180.392 96.2625 172.865 97.6182C169.406 97.6237 165.871 80.3331 165.871 80.3331C165.871 80.3331 163.899 78.987 163.282 74.709C162.569 69.7666 166.81 69.5816 167.77 70.1116C168.302 70.4056 168.399 72.1543 168.399 72.1543C168.704 74.3947 169.049 75.1668 169.63 74.3044C170.994 72.28 173.388 72.8336 172.215 75.0094C171.234 76.828 170.005 78.9685 170.005 78.9685C172.885 85.0765 173.155 84.5585 174.589 90.1131" stroke="#1C1F34" stroke-width="1.64025" stroke-linecap="round" stroke-linejoin="round"/>
<path fill-rule="evenodd" clip-rule="evenodd" d="M210.34 115.445C210.34 115.445 208.983 105.068 209.731 102.677C209.731 102.677 208.265 101.01 208.352 94.4436C211.057 94.6152 213.743 94.2685 215.933 92.6912C216.19 94.1012 216.294 95.307 216.288 96.4747C216.276 98.9642 216.166 100.858 215.933 102.71C215.291 107.804 214.133 118.808 214.133 118.808C214.133 118.808 213.344 123.647 210.865 125.238C208.386 126.83 206.17 125.182 207.046 122.826C207.922 120.469 207.919 119.016 207.919 119.016C207.919 119.016 207.07 121.243 207.184 119.787C207.298 118.331 210.34 115.445 210.34 115.445Z" fill="#A1694D"/>
<path fill-rule="evenodd" clip-rule="evenodd" d="M191.857 90.0614C191.623 90.0614 191.483 89.9751 191.483 89.7062V85.8281C191.483 85.7413 191.409 85.6783 191.328 85.6917C191.083 85.7328 190.612 85.8101 190.408 85.8435L190.312 85.8594C190.258 85.8681 190.202 85.9178 190.202 85.9905L190.202 89.8623C190.202 91.0431 191.043 91.1549 191.516 91.1549C191.817 91.1549 192.027 91.1119 192.14 91.0806C192.206 91.0625 192.239 91.0073 192.239 90.9495V90.1755C192.239 90.1051 192.179 90.0241 192.086 90.0411C192.025 90.0523 191.947 90.0614 191.857 90.0614ZM199.762 86.8593C200.185 86.8189 200.457 86.7381 200.605 86.6913C200.694 86.6628 200.758 86.726 200.775 86.789C200.776 86.7946 200.783 86.8162 200.792 86.8487L200.792 86.8488L200.792 86.8488L200.792 86.8488L200.792 86.8489C200.826 86.9707 200.904 87.2454 200.945 87.4131C200.964 87.4921 200.914 87.55 200.86 87.5747C200.783 87.6105 200.669 87.6466 200.536 87.6832C200.682 87.94 200.736 88.2144 200.736 88.4357C200.736 89.0662 200.351 89.9226 198.937 89.9226H198.807C198.511 89.9226 198.261 89.8849 198.049 89.8199C197.996 89.8703 197.956 89.9398 197.956 90.035C197.956 90.2016 198.09 90.3232 198.227 90.3232L199.331 90.3233C200.11 90.3233 200.789 90.7222 200.789 91.7753C200.789 92.7637 200.001 93.1619 198.872 93.1619C197.671 93.1619 196.957 92.7943 196.957 91.8343C196.957 91.3287 197.289 90.918 197.289 90.918C197.289 90.918 196.982 90.6574 196.982 90.1494C196.982 89.7606 197.177 89.4945 197.321 89.3514C197.091 89.0696 197.008 88.7284 197.008 88.4357C197.008 87.8443 197.396 86.8745 198.872 86.8723L198.89 86.8727C198.986 86.8755 199.455 86.8888 199.762 86.8593ZM204.053 86.8593C204.476 86.8189 204.748 86.7381 204.896 86.6913C204.986 86.6628 205.05 86.726 205.066 86.789C205.068 86.7946 205.074 86.8162 205.083 86.8488C205.117 86.9704 205.195 87.2454 205.236 87.4132C205.255 87.4922 205.205 87.55 205.151 87.5747C205.074 87.6106 204.96 87.6466 204.828 87.6832C204.973 87.94 205.027 88.2144 205.027 88.4357C205.027 89.0662 204.643 89.9226 203.228 89.9226H203.098C202.802 89.9226 202.552 89.8849 202.34 89.8199C202.287 89.8703 202.247 89.9399 202.247 90.035C202.247 90.2016 202.381 90.3232 202.518 90.3232L203.622 90.3233C204.401 90.3233 205.08 90.7222 205.08 91.7753C205.08 92.7637 204.292 93.1619 203.163 93.1619C201.962 93.1619 201.248 92.7943 201.248 91.8343C201.248 91.3287 201.58 90.918 201.58 90.918C201.58 90.918 201.273 90.6574 201.273 90.1494C201.273 89.7606 201.469 89.4945 201.612 89.3514C201.382 89.0696 201.299 88.7285 201.299 88.4357C201.299 87.8443 201.687 86.8745 203.163 86.8723L203.181 86.8727C203.277 86.8755 203.746 86.8888 204.053 86.8593ZM203.185 87.649C202.864 87.651 202.571 87.9144 202.571 88.3985C202.571 88.8499 202.81 89.1433 203.163 89.1449C203.516 89.1433 203.755 88.8499 203.755 88.3985C203.755 87.9144 203.505 87.651 203.185 87.649ZM203.947 91.7374C203.947 91.4614 203.795 91.2439 203.477 91.2439C202.934 91.2439 202.628 91.2444 202.628 91.2444C202.628 91.2444 202.427 91.439 202.427 91.7966C202.427 92.0153 202.55 92.2663 203.198 92.2663C203.823 92.2663 203.947 91.9874 203.947 91.7374ZM198.28 88.3985C198.28 87.9144 198.573 87.651 198.894 87.649C199.215 87.651 199.464 87.9144 199.464 88.3985C199.464 88.8498 199.225 89.1433 198.872 89.1449C198.519 89.1433 198.28 88.8498 198.28 88.3985ZM199.656 91.7374C199.656 91.4614 199.504 91.2438 199.186 91.2438C198.643 91.2438 198.337 91.2444 198.337 91.2444C198.337 91.2444 198.136 91.439 198.136 91.7966C198.136 92.0153 198.259 92.2663 198.907 92.2663C199.532 92.2663 199.656 91.9874 199.656 91.7374ZM195.076 87.0772C195.076 87.0171 195.128 86.9485 195.208 86.9485H196.226C196.301 86.9485 196.358 87.011 196.358 87.0797V90.9407C196.358 91.0433 196.275 91.0799 196.229 91.0799H195.365C195.287 91.0799 195.249 91.0192 195.239 90.9824C195.232 90.9554 195.149 90.659 195.104 90.499C194.825 90.7723 194.335 91.1552 193.776 91.1552C192.895 91.1552 192.709 90.5109 192.709 89.8464V87.0822C192.709 87.0003 192.777 86.9485 192.837 86.9485H193.856C193.931 86.9485 193.991 87.0074 193.991 87.0842V89.6253C193.991 89.9349 194.091 90.0504 194.319 90.0504C194.68 90.0504 194.983 89.7367 195.075 89.6304L195.076 87.0772Z" fill="white"/>
<path fill-rule="evenodd" clip-rule="evenodd" d="M197.535 73.24C204.552 73.24 204.425 69.5934 204.975 64.18C205.525 58.7666 202.679 56.6556 197.535 56.6556C192.391 56.6556 189.316 59.024 189.837 64.18C190.357 69.336 190.519 73.24 197.535 73.24Z" fill="#74605F" stroke="#1C1F34" stroke-width="1.64025"/>
<path d="M197.524 124.799L201.376 138.405L204.303 160.017H212.329C212.329 160.017 212.727 156.383 209.749 156.709L206.893 122.693L205.924 114.731L206.737 101.365C206.737 101.365 208.503 92.6165 208.503 87.2649" stroke="#1C1F34" stroke-width="1.64025" stroke-linecap="round" stroke-linejoin="round"/>
<path d="M206.197 157.718C207.115 157.132 209.241 156.754 211.764 157.718" stroke="#1C1F34" stroke-width="0.98415" stroke-linecap="round" stroke-linejoin="round"/>
<path d="M197.216 124.799L193.365 138.405L190.437 160.017H182.411C182.411 160.017 182.014 156.383 184.991 156.709L187.847 122.693L188.817 114.731L188.003 101.365C188.003 101.365 186.238 92.6165 186.238 87.2649" stroke="#1C1F34" stroke-width="1.64025" stroke-linecap="round" stroke-linejoin="round"/>
<path d="M188.543 157.718C187.625 157.132 185.5 156.754 182.976 157.718" stroke="#1C1F34" stroke-width="0.98415" stroke-linecap="round" stroke-linejoin="round"/>
<path d="M194.62 124.143H200.429" stroke="#1C1F34" stroke-width="0.98415" stroke-linecap="round" stroke-linejoin="round"/>
<path d="M202.032 79.4169C206.56 79.4169 209.034 80.6743 210.928 81.3658C212.821 82.0574 214.291 85.4524 215.023 88.2888C215.932 91.8127 215.932 96.0097 215.932 101.612C215.932 107.215 214.133 118.236 214.133 118.236C214.133 118.236 213.344 123.232 210.865 124.875C208.386 126.519 206.17 124.818 207.046 122.384C207.922 119.951 207.919 118.451 207.919 118.451C207.919 118.451 207.069 120.75 207.184 119.246C207.298 117.742 210.339 114.763 210.339 114.763C210.339 114.763 208.939 104.047 209.688 101.578C209.688 101.578 207.064 97.5541 208.377 90.2972" stroke="#1C1F34" stroke-width="1.64025" stroke-linecap="round" stroke-linejoin="round"/>
<path d="M202.909 78.9314C202.909 78.9314 202.112 77.5087 202.112 75.7917" stroke="#1C1F34" stroke-width="1.64025" stroke-linecap="round" stroke-linejoin="round"/>
<path d="M174.864 89.8812C174.864 89.8812 177.756 84.2707 182.06 82.9148C183.838 81.2648 183.656 81.0443 186.18 80.0217C189.477 78.686 193.174 78.9316 193.174 78.9316" stroke="#1C1F34" stroke-width="1.64025" stroke-linecap="round" stroke-linejoin="round"/>
<path d="M192.14 78.9314C192.14 78.9314 192.937 77.5087 192.937 75.7917" stroke="#1C1F34" stroke-width="1.64025" stroke-linecap="round" stroke-linejoin="round"/>
<path d="M201.855 75.0289C202.529 74.5842 203.161 73.9215 203.574 72.9342C203.735 72.5469 204.106 70.65 204.394 68.666" stroke="#1C1F34" stroke-width="1.9683" stroke-linecap="round" stroke-linejoin="round"/>
<path d="M192.961 75.0288C192.289 74.5838 191.658 73.9204 191.247 72.9323C191.086 72.5453 190.727 70.5456 190.446 68.5306" stroke="#1C1F34" stroke-width="1.9683" stroke-linecap="round" stroke-linejoin="round"/>
<ellipse cx="197.454" cy="68.4035" rx="6.76525" ry="7.51759" fill="#A1694D"/>
<ellipse rx="0.980752" ry="1.96933" transform="matrix(-0.990268 0.139173 0.139173 0.990268 189.53 68.5323)" stroke="#1C1F34" stroke-width="1.64025" stroke-linecap="round" stroke-linejoin="round"/>
<ellipse rx="1.30767" ry="1.96933" transform="matrix(-0.990268 0.139173 0.139173 0.990268 190.502 68.3959)" fill="#A1694D"/>
<ellipse cx="205.21" cy="68.5323" rx="0.980752" ry="1.96933" transform="rotate(8 205.21 68.5323)" stroke="#1C1F34" stroke-width="1.64025" stroke-linecap="round" stroke-linejoin="round"/>
<ellipse cx="204.239" cy="68.3959" rx="1.30767" ry="1.96933" transform="rotate(8 204.239 68.3959)" fill="#A1694D"/>
<path fill-rule="evenodd" clip-rule="evenodd" d="M190.615 61.3311C191.267 59.8897 192.737 58.7513 192.737 58.7513C192.737 58.7513 193.759 60.5507 193.273 60.9991C192.98 61.2691 191.855 62.5805 191.669 63.357C191.172 65.4333 191.349 67.8576 191.301 68.4892C191.254 69.1207 191.148 69.2074 190.936 68.4892C190.814 68.0793 190.701 67.9358 190.615 66.7145C190.57 66.0691 190.141 66.1565 190.13 65.467C190.118 64.6758 189.964 62.7724 190.615 61.3311Z" fill="#1C1F34"/>
<path fill-rule="evenodd" clip-rule="evenodd" d="M204.167 61.3311C203.515 59.8897 202.045 58.7513 202.045 58.7513C202.045 58.7513 201.022 60.5507 201.509 60.9991C201.802 61.2691 202.927 62.5805 203.113 63.357C203.61 65.4333 203.433 67.8576 203.48 68.4892C203.528 69.1207 203.634 69.2074 203.846 68.4892C203.967 68.0793 204.08 67.9358 204.167 66.7145C204.212 66.0691 204.641 66.1565 204.652 65.467C204.664 64.6758 204.818 62.7724 204.167 61.3311Z" fill="#1C1F34"/>
<path d="M195.082 72.3803C195.082 72.3803 196.289 74.0468 199.692 72.8645" stroke="#1C1F34" stroke-width="0.98415" stroke-linecap="round" stroke-linejoin="round"/>
<path opacity="0.2" d="M199.401 75.6625C197.07 76.5224 198.226 76.4781 195.934 75.8734" stroke="#1C1F34" stroke-width="0.6561" stroke-linecap="round" stroke-linejoin="round"/>
<path fill-rule="evenodd" clip-rule="evenodd" d="M205.517 64.1628C205.517 62.188 205.517 55.9692 197.684 55.9692C189.852 55.9692 189.524 61.5663 189.524 63.9322C189.524 65.1138 193.512 63.6959 197.505 63.706C201.509 63.7161 205.517 65.1514 205.517 64.1628Z" fill="#434D9E" stroke="#1C1F34" stroke-width="1.64025"/>
<rect x="195.736" y="58.595" width="3.92301" height="1.96933" rx="0.6561" fill="white"/>
<path opacity="0.3" fill-rule="evenodd" clip-rule="evenodd" d="M205.061 65.74C205.061 66.5515 201.182 65.118 197.365 65.1348C193.547 65.1517 189.524 66.6888 189.524 65.8087C189.524 64.9285 193.563 63.8633 197.365 63.8465C201.166 63.8297 205.061 64.9286 205.061 65.74Z" fill="#1C1F34" stroke="#1C1F34" stroke-width="0.98415"/>
<path fill-rule="evenodd" clip-rule="evenodd" d="M206.368 64.9836C206.368 66.0335 202 64.1788 197.701 64.2006C193.401 64.2224 188.87 66.2111 188.87 65.0724C188.87 63.9337 193.419 61.8991 197.701 61.8773C201.982 61.8556 206.368 63.9337 206.368 64.9836Z" fill="#434D9E" stroke="#1C1F34" stroke-width="0.98415"/>
<ellipse cx="197.697" cy="55.1816" rx="1.30767" ry="0.656442" fill="#1C1F34"/>
<defs>
<linearGradient id="paint0_linear_0_609" x1="32.6579" y1="20.7422" x2="32.6579" y2="141" gradientUnits="userSpaceOnUse">
<stop stop-color="#FCFCFC" stop-opacity="0.01"/>
<stop offset="1" stop-color="#F7F7F8"/>
</linearGradient>
<linearGradient id="paint1_linear_0_609" x1="266.187" y1="98.9978" x2="266.187" y2="143.099" gradientUnits="userSpaceOnUse">
<stop stop-color="#FF8563"/>
<stop offset="0.9859" stop-color="#F97250"/>
</linearGradient>
<linearGradient id="paint2_linear_0_609" x1="96.4129" y1="92.726" x2="96.4129" y2="97.4438" gradientUnits="userSpaceOnUse">
<stop stop-color="#FF8563"/>
<stop offset="0.9859" stop-color="#F97250"/>
</linearGradient>
</defs>
</svg>
