<svg width="113" height="38" viewBox="0 0 113 38" fill="none" xmlns="http://www.w3.org/2000/svg">
<path fill-rule="evenodd" clip-rule="evenodd" d="M6.5 36.3731C6.5 36.0609 6.75313 35.8077 7.06538 35.8077H93.6846C93.9969 35.8077 94.25 36.0609 94.25 36.3731C94.25 36.6854 93.9969 36.9385 93.6846 36.9385H7.06539C6.75313 36.9385 6.5 36.6854 6.5 36.3731Z" fill="#1F2857"/>
<rect x="0.5" y="35.8077" width="3.75" height="1.13077" rx="0.565385" fill="#1F2857"/>
<rect x="96.5" y="35.8077" width="3.75" height="1.13077" rx="0.565385" fill="#1F2857"/>
<path fill-rule="evenodd" clip-rule="evenodd" d="M99.4008 23.1229C99.4339 22.7447 99.7747 22.4656 100.161 22.4994L110.968 23.4448C111.354 23.4787 111.641 23.8132 111.608 24.1909L111.458 25.907C111.425 26.2853 111.084 26.5644 110.698 26.5306L99.8909 25.5852C99.5042 25.5513 99.2176 25.2167 99.2506 24.8391L99.4008 23.1229Z" fill="#1C1F34"/>
<path fill-rule="evenodd" clip-rule="evenodd" d="M99.1143 23.5005L110.967 24.5074L110.879 25.5631C110.863 25.7542 110.695 25.8957 110.497 25.8784L98.9943 24.872C98.7998 24.855 98.6555 24.6892 98.6724 24.4951L98.7319 23.8158C98.7486 23.6246 98.9165 23.4832 99.1143 23.5005Z" fill="url(#paint0_linear_0_29)"/>
<path fill-rule="evenodd" clip-rule="evenodd" d="M101.366 25.995C101.366 25.995 101.95 20.9816 101.877 18.4807C101.824 16.6226 101.044 13.8832 101.044 13.8832C100.808 12.9636 99.136 12.2181 98.1639 12.2181H54.7663C54.7663 12.2181 54.7663 10.4194 54.7663 10.0752C54.7663 3.99085 54.0325 1.85747 54.0325 1.85747C53.8577 1.11669 53.0893 0.475097 52.3212 0.428375C52.3212 0.428375 40.3863 -0.416689 35.5953 0.516176C30.8042 1.44904 21.8233 10.1344 21.8233 10.1344C21.6844 10.2667 21.4147 10.3908 21.221 10.4121C21.221 10.4121 4.03517 12.2181 3.0107 14.3601C1.98622 16.5021 1.68135 26.7389 4.03517 28.3942C6.389 30.0496 98.6653 28.4371 98.6653 28.4371C100.017 28.4134 101.23 27.3231 101.366 25.995Z" fill="#1C1F34"/>
<path fill-rule="evenodd" clip-rule="evenodd" d="M100.771 26.0117C100.771 26.0117 101.6 20.9817 101.527 18.4808C101.474 16.6227 100.534 14.5163 100.534 14.5163C100.193 13.6272 99.136 12.9065 98.164 12.9065H54.0661C54.0661 12.9065 54.0661 10.4195 54.0661 10.0753C54.0661 3.99092 53.6098 2.55723 53.6098 2.55723C53.4751 1.81018 52.7376 1.16236 51.9688 1.11449C51.9688 1.11449 40.3864 0.271719 35.5953 1.20458C30.8043 2.13745 22.1688 10.8181 22.1688 10.8181C22.0325 10.953 21.7627 11.0766 21.5703 11.0943C21.5703 11.0943 4.73543 12.5623 3.71095 14.7043C2.68648 16.8464 2.3816 26.739 4.73543 28.3943C7.08925 30.0497 97.9619 28.4379 97.9619 28.4379C99.3157 28.4138 100.578 27.3273 100.771 26.0117Z" fill="url(#paint1_linear_0_29)"/>
<path fill-rule="evenodd" clip-rule="evenodd" d="M30.2783 15.1673L30.2615 15.4933C30.2235 16.2282 30.4827 16.5235 31.4706 17.7899C32.4586 19.0563 32.8936 21.8227 32.8936 21.8227C33.3033 22.2492 36.2179 22.595 36.819 22.595L40.9943 22.595C41.5924 22.595 42.0729 22.1188 42.0677 21.5291L42.0155 15.3702C42.0102 14.7815 41.5224 14.2949 40.9275 14.2832L31.132 14.3868C30.6833 14.378 30.3011 14.7276 30.2783 15.1673Z" fill="white"/>
<path fill-rule="evenodd" clip-rule="evenodd" d="M30.2783 15.1673L30.2615 15.4933C30.2235 16.2282 30.4827 16.5235 31.4706 17.7899C32.4586 19.0563 32.8936 21.8227 32.8936 21.8227C33.3033 22.2492 36.2179 22.595 36.819 22.595L40.9943 22.595C41.5924 22.595 42.0729 22.1188 42.0677 21.5291L42.0155 15.3702C42.0102 14.7815 41.5224 14.2949 40.9275 14.2832L31.132 14.3868C30.6833 14.378 30.3011 14.7276 30.2783 15.1673Z" fill="url(#paint2_linear_0_29)" fill-opacity="0.05"/>
<path opacity="0.1" fill-rule="evenodd" clip-rule="evenodd" d="M2.92351 15.5824C2.92351 15.5824 10.1493 13.6099 14.5616 12.918C18.9739 12.2261 24.0729 12.2658 24.0729 12.2658L24.1208 12.6067C24.1208 12.6067 20.7658 12.2934 14.6044 13.2595C8.44305 14.2257 2.97141 15.9232 2.97141 15.9232L2.92351 15.5824Z" fill="#242D5F"/>
<path opacity="0.1" fill-rule="evenodd" clip-rule="evenodd" d="M35.8063 16.6924H66.7241L73.6719 17.0365H28.8585L35.8063 16.6924Z" fill="#242D5F"/>
<path opacity="0.1" fill-rule="evenodd" clip-rule="evenodd" d="M32.0094 22.8876H69.1205L66.1752 23.9201H35.5104L32.0094 22.8876Z" fill="#242D5F"/>
<path fill-rule="evenodd" clip-rule="evenodd" d="M27.8895 12.4819C26.7279 12.4973 26.152 11.6587 26.6047 10.6056L26.6904 10.4063C27.0669 9.53031 27.9263 8.27875 28.6223 7.61257C28.6223 7.61257 33.6734 2.55653 35.6095 2.22476C37.5456 1.89299 43.1365 1.90041 43.1365 1.90041C43.9065 1.89631 44.5253 2.51057 44.5185 3.26993L44.4507 10.8851C44.4439 11.6456 43.8125 12.2704 43.0365 12.2807L27.8895 12.4819Z" fill="#1C1F34"/>
<path fill-rule="evenodd" clip-rule="evenodd" d="M28.5846 11.7914C27.4258 11.808 27.036 11.0672 27.7098 10.1425L27.4034 10.563C27.9663 9.79052 28.979 8.62119 29.6736 7.95845C29.6736 7.95845 34.3736 3.24491 36.3097 2.91314C38.2458 2.58137 43.0445 2.65998 43.0445 2.65998C43.4277 2.66387 43.7383 2.9736 43.7383 3.3585V10.1967C43.7383 10.9572 43.1141 11.5827 42.3411 11.5938L28.5846 11.7914Z" fill="url(#paint3_linear_0_29)"/>
<path fill-rule="evenodd" clip-rule="evenodd" d="M47.4139 3.27139C47.4139 2.51009 48.0418 1.89294 48.8159 1.89294H50.33C51.1042 1.89294 51.8058 2.50301 51.8952 3.25822C51.8952 3.25822 52.3154 6.62694 52.3154 7.57807V11.1876C52.3154 11.9468 51.6896 12.5623 50.9174 12.5623H48.8119C48.0398 12.5623 47.4139 11.9426 47.4139 11.1839V3.27139Z" fill="#1C1F34"/>
<g opacity="0.1">
<path fill-rule="evenodd" clip-rule="evenodd" d="M48.6833 6.3234C48.6204 6.27453 48.612 6.18798 48.6657 6.1286L50.2634 4.36382C50.3165 4.3051 50.4101 4.29678 50.4734 4.346C50.5363 4.39487 50.5447 4.48142 50.491 4.5408L48.8933 6.30558C48.8402 6.3643 48.7466 6.37262 48.6833 6.3234Z" fill="white"/>
<path fill-rule="evenodd" clip-rule="evenodd" d="M50.1059 5.83675C50.0745 5.81232 50.0697 5.76969 50.096 5.74061L50.7181 5.05345C50.744 5.02478 50.7915 5.02207 50.822 5.0458C50.8534 5.07023 50.8582 5.11286 50.8319 5.14194L50.2098 5.8291C50.1839 5.85776 50.1364 5.86047 50.1059 5.83675Z" fill="white"/>
</g>
<g opacity="0.1">
<path fill-rule="evenodd" clip-rule="evenodd" d="M32.8338 7.63839L36.0774 4.07585C36.176 3.96754 36.3512 3.95338 36.4705 4.04566C36.589 4.1373 36.6031 4.30161 36.5065 4.4077L33.2629 7.97024C33.1643 8.07855 32.9892 8.09271 32.8698 8.00043C32.7513 7.90879 32.7372 7.74448 32.8338 7.63839Z" fill="white"/>
<path fill-rule="evenodd" clip-rule="evenodd" d="M35.2833 6.6268C35.224 6.58098 35.2175 6.4982 35.2661 6.44488L36.5262 5.06088C36.5759 5.00623 36.666 5.00041 36.7236 5.04489C36.7828 5.0907 36.7893 5.17348 36.7407 5.2268L35.4806 6.6108C35.4309 6.66545 35.3408 6.67128 35.2833 6.6268Z" fill="white"/>
</g>
<path fill-rule="evenodd" clip-rule="evenodd" d="M43.0354 14.2832C43.3267 14.2832 43.5628 14.5124 43.5628 14.7995C43.5628 15.0846 43.326 15.3157 43.0354 15.3157H40.9393C40.648 15.3157 40.4119 15.0866 40.4119 14.7995C40.4119 14.5143 40.6487 14.2832 40.9393 14.2832H43.0354Z" fill="#1F2857"/>
<path fill-rule="evenodd" clip-rule="evenodd" d="M43.0707 4.27322C43.0929 3.90902 43.4136 3.61377 43.7878 3.61377H43.5861C43.96 3.61377 44.2631 3.91084 44.2631 4.27322V6.74022C44.2631 7.10443 43.9631 7.39967 43.5879 7.39967H43.5555C43.1826 7.39967 42.8985 7.1026 42.9205 6.74022L43.0707 4.27322Z" fill="#1C1F34"/>
<path fill-rule="evenodd" clip-rule="evenodd" d="M42.3113 9.09178C42.4225 8.72753 42.8256 8.43225 43.2145 8.43225H43.5612C43.9489 8.43225 44.201 8.73768 44.1264 9.10402L43.5629 11.874H41.4623L42.3113 9.09178Z" fill="#1C1F34"/>
<path fill-rule="evenodd" clip-rule="evenodd" d="M27.1284 11.02C27.1284 10.7261 27.769 9.82883 27.769 9.82883L28.7497 8.73279L33.3462 12.2182H27.769C27.769 12.2182 27.1284 11.5225 27.1284 11.02Z" fill="#1C1F34"/>
<path fill-rule="evenodd" clip-rule="evenodd" d="M32.3881 11.8999L32.4833 12.0687C32.624 12.3182 32.9421 12.4055 33.1958 12.2673C33.4512 12.1281 33.5417 11.816 33.402 11.5681L31.7016 8.55266C31.561 8.3032 31.2429 8.21582 30.9892 8.35405C30.7338 8.49324 30.6432 8.80532 30.783 9.05324L31.7074 10.6926L30.5554 11.6139L31.0654 12.4484L32.3881 11.8999Z" fill="#1C1F34"/>
<path opacity="0.1" fill-rule="evenodd" clip-rule="evenodd" d="M26.419 11.8544C26.3133 10.7369 26.986 8.81945 26.986 8.81945C27.107 8.43836 27.5391 8.03113 27.9508 7.90999L28.4026 7.77706C28.8145 7.65586 29.1786 7.87694 29.2163 8.2758L29.7629 14.0544C29.8004 14.4511 29.481 14.8009 29.0529 14.8356L28.2725 14.8987C27.8429 14.9335 27.3669 14.6585 27.2152 14.2878C27.2152 14.2878 26.4929 12.6362 26.419 11.8544Z" fill="#242D5F"/>
<path fill-rule="evenodd" clip-rule="evenodd" d="M26.4193 11.1838C26.3343 10.2289 26.7443 8.6842 26.7443 8.6842C26.8313 8.314 27.1967 7.90816 27.5593 7.77817L27.5441 7.78363C27.9073 7.65344 28.2289 7.85361 28.2625 8.23119L28.6895 13.0293C28.7231 13.4067 28.4404 13.7392 28.053 13.7726L27.8787 13.7876C27.4936 13.8207 27.0799 13.5525 26.9599 13.1928C26.9599 13.1928 26.4788 11.8517 26.4193 11.1838Z" fill="#1C1F34"/>
<path fill-rule="evenodd" clip-rule="evenodd" d="M99.6486 18.3705C99.6062 17.1571 99.3524 14.7545 99.3524 14.7545C99.306 14.2951 99.7357 13.9064 100.317 13.8861L100.475 13.8805C101.054 13.8603 101.562 14.217 101.608 14.6786C101.608 14.6786 101.861 17.0547 101.903 18.2563C101.96 19.8927 101.707 23.0587 101.707 23.0587C101.673 23.5189 101.179 23.9083 100.597 23.9286L100.439 23.9341C99.8599 23.9543 99.4189 23.5968 99.4524 23.1321C99.4524 23.1321 99.7053 19.9951 99.6486 18.3705Z" fill="#1C1F34"/>
<path fill-rule="evenodd" clip-rule="evenodd" d="M100.247 18.4163C100.209 17.3377 99.9084 14.7553 99.9084 14.7553C99.891 14.6027 100.033 14.4735 100.225 14.4668L100.69 14.4506C100.882 14.4439 101.052 14.5624 101.07 14.718C101.07 14.718 101.37 17.2762 101.407 18.3443C101.458 19.7989 101.249 23.0889 101.249 23.0889C101.24 23.2425 101.075 23.3725 100.884 23.3792L100.419 23.3954C100.227 23.4021 100.079 23.2835 100.088 23.128C100.088 23.128 100.297 19.8604 100.247 18.4163Z" fill="#C10000"/>
<mask id="mask0_0_29" style="mask-type:alpha" maskUnits="userSpaceOnUse" x="99" y="14" width="3" height="10">
<path fill-rule="evenodd" clip-rule="evenodd" d="M100.247 18.4163C100.209 17.3377 99.9084 14.7553 99.9084 14.7553C99.891 14.6027 100.033 14.4735 100.225 14.4668L100.69 14.4506C100.882 14.4439 101.052 14.5624 101.07 14.718C101.07 14.718 101.37 17.2762 101.407 18.3443C101.458 19.7989 101.249 23.0889 101.249 23.0889C101.24 23.2425 101.075 23.3725 100.884 23.3792L100.419 23.3954C100.227 23.4021 100.079 23.2835 100.088 23.128C100.088 23.128 100.297 19.8604 100.247 18.4163Z" fill="white"/>
</mask>
<g mask="url(#mask0_0_29)">
<path opacity="0.4" fill-rule="evenodd" clip-rule="evenodd" d="M100.953 19.7451L101.397 19.7528L101.308 23.1005L100.786 23.0914L100.953 19.7451Z" fill="white"/>
</g>
<path fill-rule="evenodd" clip-rule="evenodd" d="M19.0555 14.1111C19.0555 13.826 19.2916 13.5948 19.5808 13.5948H20.2809C20.5709 13.5948 20.8061 13.824 20.8061 14.1111C20.8061 14.3963 20.57 14.6274 20.2809 14.6274H19.5808C19.2907 14.6274 19.0555 14.3982 19.0555 14.1111Z" fill="#1C1F34"/>
<path fill-rule="evenodd" clip-rule="evenodd" d="M19.4056 14.111C19.4056 14.016 19.4812 13.939 19.5791 13.939H20.2825C20.3783 13.939 20.4559 14.0188 20.4559 14.111C20.4559 14.2061 20.3804 14.2831 20.2825 14.2831H19.5791C19.4833 14.2831 19.4056 14.2033 19.4056 14.111Z" fill="#F5A623"/>
<mask id="mask1_0_29" style="mask-type:alpha" maskUnits="userSpaceOnUse" x="19" y="13" width="2" height="2">
<path fill-rule="evenodd" clip-rule="evenodd" d="M19.4056 14.111C19.4056 14.016 19.4812 13.939 19.5791 13.939H20.2825C20.3783 13.939 20.4559 14.0188 20.4559 14.111C20.4559 14.2061 20.3804 14.2831 20.2825 14.2831H19.5791C19.4833 14.2831 19.4056 14.2033 19.4056 14.111Z" fill="white"/>
</mask>
<g mask="url(#mask1_0_29)">
<path fill-rule="evenodd" clip-rule="evenodd" d="M19.0555 13.939H19.7557V14.2831H19.0555V13.939Z" fill="white"/>
</g>
<rect x="22.2065" y="25.2968" width="58.8176" height="4.47429" fill="#1C1F34"/>
<path fill-rule="evenodd" clip-rule="evenodd" d="M45.3134 0.172119H46.0135V28.3944H45.3134V0.172119Z" fill="#1C1F34"/>
<path fill-rule="evenodd" clip-rule="evenodd" d="M54.066 12.5624H55.4665V29.4269H54.066V12.5624Z" fill="#1C1F34"/>
<path fill-rule="evenodd" clip-rule="evenodd" d="M25.3735 18.315C22.8054 16.6674 23.7212 9.30275 23.7212 9.30275L24.5988 9.36411C24.5988 9.36411 23.1662 15.7083 26.1455 18.1488C29.1249 20.5893 29.2146 29.3439 29.2146 29.3439L28.5161 29.2951C28.5161 29.2951 28.7115 21.1766 25.3735 18.315Z" fill="#1C1F34"/>
<path fill-rule="evenodd" clip-rule="evenodd" d="M21.1316 11.0714C21.1316 11.0714 24.6073 7.63748 26.5202 6.09262C28.0611 4.84813 31.4932 2.70333 31.4932 2.70333L32.7374 1.95911L33.1347 2.0443C33.5136 2.12556 33.567 2.37794 33.2616 2.60328C33.2616 2.60328 29.6402 5.25139 28.1597 6.55295C26.5491 7.96904 24.0279 10.8012 24.0279 10.8012L21.1316 11.0714Z" fill="#1C1F34"/>
<ellipse opacity="0.1" cx="17.6912" cy="24.1347" rx="9.83905" ry="5.72139" fill="#242D5F"/>
<ellipse cx="17.6551" cy="25.0794" rx="9.10272" ry="5.63343" fill="#1C1F34"/>
<path fill-rule="evenodd" clip-rule="evenodd" d="M1.88312 23.8694C1.80731 23.1144 2.37012 22.5142 3.1435 22.5287L9.75171 22.6529C10.5236 22.6675 10.9133 23.2481 10.6272 23.9563C10.6272 23.9563 9.92528 25.5755 9.78933 26.371C9.55596 27.7365 9.68049 30.1088 9.68049 30.1088C9.69472 30.4865 9.39636 30.7566 9.00819 30.7116L5.27746 30.2784C3.74035 30.0999 2.37111 28.7287 2.21878 27.2118L1.88312 23.8694Z" fill="#1C1F34"/>
<path opacity="0.1" fill-rule="evenodd" clip-rule="evenodd" d="M11.5433 16.9469C13.4871 16.0042 15.8115 16.0042 17.7562 16.0042C19.5823 16.0042 22.1687 16.0171 23.6777 16.7141C27.1091 18.2991 28.5811 21.7694 28.5811 25.6466C28.4407 21.9879 26.9504 18.7612 23.6777 17.2495C22.1687 16.5525 19.5823 16.5396 17.7562 16.5396C15.8115 16.5396 15.29 16.2856 12.4694 16.9469C10.6409 17.3756 5.19791 20.0244 11.5433 16.9469Z" fill="#242D5F"/>
<path fill-rule="evenodd" clip-rule="evenodd" d="M1.52019 23.0293C0.941084 23.0436 0.50448 22.5934 0.544752 22.0273L0.971274 16.031C1.01166 15.4633 1.50498 15.098 2.06989 15.2145L2.09421 15.2195C2.66058 15.3363 3.08682 15.8933 3.04651 16.4601L2.6543 21.9739C2.61388 22.5422 2.11294 23.0146 1.53255 23.029L1.52019 23.0293Z" fill="#1C1F34"/>
<path fill-rule="evenodd" clip-rule="evenodd" d="M1.579 22.3186C1.28991 22.3432 1.07183 22.1343 1.09227 21.847L1.49173 16.2313C1.512 15.9463 1.75217 15.7817 2.03191 15.8648L2.05607 15.872C2.33413 15.9546 2.54318 16.2515 2.52315 16.5332L2.15125 21.7614C2.13115 22.0439 1.87977 22.293 1.59142 22.3175L1.579 22.3186Z" fill="url(#paint4_linear_0_29)"/>
<path fill-rule="evenodd" clip-rule="evenodd" d="M2.60062 16.3483H7.15189C7.53863 16.3483 7.78644 16.6497 7.7061 17.0183L6.94787 20.4967C6.86721 20.8668 6.48899 21.1667 6.10065 21.1667H2.60155C2.2143 21.1667 1.87794 20.858 1.85059 20.4815L1.95016 17.0335C1.92267 16.6551 2.21199 16.3483 2.60062 16.3483Z" fill="#1C1F34"/>
<path fill-rule="evenodd" clip-rule="evenodd" d="M2.61221 17.0366H7.12019L6.32466 20.4784H2.52728L2.61221 17.0366Z" fill="url(#paint5_linear_0_29)"/>
<mask id="mask2_0_29" style="mask-type:alpha" maskUnits="userSpaceOnUse" x="2" y="17" width="6" height="4">
<path fill-rule="evenodd" clip-rule="evenodd" d="M2.61221 17.0366H7.12019L6.32466 20.4784H2.52728L2.61221 17.0366Z" fill="white"/>
</mask>
<g mask="url(#mask2_0_29)">
<ellipse cx="2.93875" cy="18.7639" rx="0.525151" ry="1.03252" transform="rotate(1 2.93875 18.7639)" fill="white"/>
<path opacity="0.2" fill-rule="evenodd" clip-rule="evenodd" d="M8.15424 16.6924H5.7515L5.4014 21.1667H8.15424V16.6924Z" fill="#FF0000"/>
</g>
<path fill-rule="evenodd" clip-rule="evenodd" d="M26.6071 29.4551C26.4514 30.1999 26.9505 30.8036 27.7224 30.8036H48.5334C49.3051 30.8036 49.7521 30.2129 49.5315 29.4833L49.4974 29.3704C49.277 28.6413 48.4697 28.0502 47.7014 28.0502H28.2979C27.5263 28.0502 26.7746 28.6544 26.6189 29.3986L26.6071 29.4551Z" fill="#1C1F34"/>
<path fill-rule="evenodd" clip-rule="evenodd" d="M28.0029 30.1152H48.2475C48.9722 30.1152 49.0419 29.8199 48.8348 29.4551L48.8027 29.3987C48.5957 29.0341 48.1877 28.7385 47.4661 28.7385H28.5433C27.8188 28.7385 27.4628 29.0406 27.3167 29.4128L27.3056 29.441C27.1594 29.8134 27.2779 30.1152 28.0029 30.1152Z" fill="url(#paint6_linear_0_29)"/>
<path fill-rule="evenodd" clip-rule="evenodd" d="M100.767 26.6574C100.885 25.9059 100.354 25.2968 99.5776 25.2968H88.0283C87.2537 25.2968 86.6258 25.9142 86.6258 26.6757V28.3921C86.6258 29.1537 87.2525 29.771 88.0228 29.771H98.8828C99.6544 29.771 100.375 29.163 100.493 28.4104L100.767 26.6574Z" fill="#1C1F34"/>
<path fill-rule="evenodd" clip-rule="evenodd" d="M102.209 24.602C102.272 24.0353 101.851 23.5758 101.269 23.5758H98.8827C98.3008 23.5758 97.8291 24.0376 97.8291 24.6073V26.6743C97.8291 27.244 98.2998 27.7059 98.8785 27.7059H100.814C101.393 27.7059 101.914 27.2481 101.977 26.6797L102.209 24.602Z" fill="#1C1F34"/>
<path fill-rule="evenodd" clip-rule="evenodd" d="M101.546 24.6073C101.568 24.4178 101.43 24.2642 101.235 24.2642H98.8799C98.6863 24.2642 98.5294 24.4201 98.5294 24.6073V26.6744C98.5294 26.8639 98.6847 27.0176 98.8768 27.0176H100.925C101.117 27.0176 101.29 26.8617 101.312 26.6744L101.546 24.6073Z" fill="url(#paint7_linear_0_29)"/>
<ellipse opacity="0.1" rx="9.80293" ry="5.72139" transform="matrix(-1 0 0 1 85.5755 24.1346)" fill="#242D5F"/>
<path opacity="0.1" fill-rule="evenodd" clip-rule="evenodd" d="M78.9444 16.2584C80.6279 15.4201 83.4999 15.3157 85.5754 15.3157C87.5244 15.3157 90.2849 15.3286 91.8955 16.0256C95.5578 17.6106 97.1289 21.081 97.1289 24.9582C96.9791 21.2994 95.3884 18.0727 91.8955 16.5611C90.2849 15.864 87.5244 15.8511 85.5754 15.8511C83.4999 15.8511 80.6279 15.9556 78.9444 16.7938C75.6191 18.4497 74.1632 21.1685 74.0318 24.6768C74.022 20.9081 75.4525 17.9972 78.9444 16.2584Z" fill="#242D5F"/>
<ellipse rx="9.10272" ry="5.63343" transform="matrix(-1 0 0 1 85.5755 25.0792)" fill="#1C1F34"/>
<ellipse cx="18.0053" cy="28.7386" rx="7.7023" ry="7.57184" fill="#1C1F34"/>
<ellipse cx="18.0053" cy="28.7385" rx="3.85115" ry="3.7859" fill="url(#paint8_linear_0_29)"/>
<ellipse cx="18.0053" cy="28.7386" rx="1.75051" ry="1.72087" fill="#1C1F34"/>
<circle cx="18.1552" cy="26.141" r="0.5" fill="#1C1F34"/>
<circle cx="18.1552" cy="31.6477" r="0.5" fill="#1C1F34"/>
<circle cx="20.371" cy="27.5697" r="0.5" transform="rotate(60 20.371 27.5697)" fill="#1C1F34"/>
<circle cx="15.5197" cy="30.323" r="0.5" transform="rotate(60 15.5197 30.323)" fill="#1C1F34"/>
<circle cx="20.2211" cy="30.1673" r="0.5" transform="rotate(120 20.2211 30.1673)" fill="#1C1F34"/>
<circle cx="15.3698" cy="27.4138" r="0.5" transform="rotate(120 15.3698 27.4138)" fill="#1C1F34"/>
<ellipse cx="85.5755" cy="28.7386" rx="7.7023" ry="7.57184" fill="#1C1F34"/>
<ellipse cx="85.5755" cy="28.7385" rx="3.85115" ry="3.7859" fill="url(#paint9_linear_0_29)"/>
<ellipse cx="85.5755" cy="28.7386" rx="1.75051" ry="1.72087" fill="#1C1F34"/>
<circle cx="85.7253" cy="26.141" r="0.5" fill="#1C1F34"/>
<circle cx="85.7253" cy="31.6477" r="0.5" fill="#1C1F34"/>
<circle cx="87.9413" cy="27.5697" r="0.5" transform="rotate(60 87.9413 27.5697)" fill="#1C1F34"/>
<circle cx="83.0901" cy="30.323" r="0.5" transform="rotate(60 83.0901 30.323)" fill="#1C1F34"/>
<circle cx="87.7914" cy="30.1673" r="0.5" transform="rotate(120 87.7914 30.1673)" fill="#1C1F34"/>
<circle cx="82.9402" cy="27.4138" r="0.5" transform="rotate(120 82.9402 27.4138)" fill="#1C1F34"/>
<defs>
<linearGradient id="paint0_linear_0_29" x1="110.553" y1="25.8132" x2="110.669" y2="24.4813" gradientUnits="userSpaceOnUse">
<stop stop-color="#A4ACBC"/>
<stop offset="0.9859" stop-color="#B5BBCA"/>
</linearGradient>
<linearGradient id="paint1_linear_0_29" x1="4.19034" y1="0.765259" x2="4.19034" y2="28.4227" gradientUnits="userSpaceOnUse">
<stop stop-color="white"/>
<stop offset="0.979592" stop-color="#F9F9FC"/>
</linearGradient>
<linearGradient id="paint2_linear_0_29" x1="30.2579" y1="22.595" x2="30.2579" y2="14.2832" gradientUnits="userSpaceOnUse">
<stop offset="0.0118583" stop-color="#1C1F34" stop-opacity="0.2"/>
<stop offset="1" stop-color="#1C1F34"/>
</linearGradient>
<linearGradient id="paint3_linear_0_29" x1="28.5815" y1="2.65186" x2="28.5815" y2="10.4487" gradientUnits="userSpaceOnUse">
<stop stop-color="#8388A4"/>
<stop offset="0.986707" stop-color="#A5A9C1"/>
</linearGradient>
<linearGradient id="paint4_linear_0_29" x1="2.48894" y1="21.9994" x2="2.48894" y2="15.8433" gradientUnits="userSpaceOnUse">
<stop stop-color="#A4ACBC"/>
<stop offset="0.9859" stop-color="#B5BBCA"/>
</linearGradient>
<linearGradient id="paint5_linear_0_29" x1="2.52728" y1="17.0366" x2="2.52728" y2="20.4784" gradientUnits="userSpaceOnUse">
<stop stop-color="#FFC900"/>
<stop offset="1" stop-color="#FFF15E"/>
</linearGradient>
<linearGradient id="paint6_linear_0_29" x1="48.3988" y1="30.047" x2="48.3988" y2="28.7385" gradientUnits="userSpaceOnUse">
<stop stop-color="#A4ACBC"/>
<stop offset="0.9859" stop-color="#B5BBCA"/>
</linearGradient>
<linearGradient id="paint7_linear_0_29" x1="98.6042" y1="26.8811" x2="98.6042" y2="24.2642" gradientUnits="userSpaceOnUse">
<stop stop-color="#A4ACBC"/>
<stop offset="0.9859" stop-color="#B5BBCA"/>
</linearGradient>
<linearGradient id="paint8_linear_0_29" x1="21.6655" y1="32.1491" x2="21.6655" y2="24.9526" gradientUnits="userSpaceOnUse">
<stop stop-color="#A4ACBC"/>
<stop offset="0.9859" stop-color="#B5BBCA"/>
</linearGradient>
<linearGradient id="paint9_linear_0_29" x1="89.2357" y1="32.1491" x2="89.2357" y2="24.9526" gradientUnits="userSpaceOnUse">
<stop stop-color="#A4ACBC"/>
<stop offset="0.9859" stop-color="#B5BBCA"/>
</linearGradient>
</defs>
</svg>
