<svg width="129" height="49" viewBox="0 0 129 49" fill="none" xmlns="http://www.w3.org/2000/svg">
<path fill-rule="evenodd" clip-rule="evenodd" d="M9 47.6807C9 47.3685 9.25313 47.1154 9.56538 47.1154H111.185C111.497 47.1154 111.75 47.3685 111.75 47.6807C111.75 47.993 111.497 48.2461 111.185 48.2461H9.56538C9.25313 48.2461 9 47.993 9 47.6807Z" fill="#1F2857"/>
<rect x="3" y="47.1154" width="3.75" height="1.13077" rx="0.565385" fill="#1F2857"/>
<rect x="113.25" y="47.1154" width="3.75" height="1.13077" rx="0.565385" fill="#1F2857"/>
<path fill-rule="evenodd" clip-rule="evenodd" d="M112.389 3.28747C112.351 2.44416 113.015 1.73508 113.859 1.7191L124.229 1.52276C125.386 1.50085 126.368 2.35725 126.489 3.50795C126.82 6.67467 127.427 13.0842 127.645 19.3019C127.865 25.6096 127.691 31.93 127.577 34.9443C127.537 36.0078 126.741 36.8374 125.677 36.8681C125.006 36.8874 124.105 36.9027 122.906 36.9059C120.342 36.9128 117.111 36.8355 115.306 36.7852C114.524 36.7634 113.894 36.141 113.859 35.3591L112.389 3.28747Z" fill="#1C1F34"/>
<path fill-rule="evenodd" clip-rule="evenodd" d="M111.6 3.26232C111.58 2.84011 111.913 2.48515 112.336 2.47776L124.161 2.2708C124.929 2.25736 125.582 2.82202 125.666 3.58574C125.971 6.34073 126.641 12.9226 126.863 19.2946C127.088 25.7293 126.864 32.1786 126.75 34.7928C126.719 35.5024 126.187 36.057 125.477 36.0855C124.776 36.1137 123.705 36.1401 122.099 36.1467C119.537 36.1572 116.309 36.0881 114.503 36.0428C113.719 36.0231 113.087 35.4003 113.051 34.6171L111.6 3.26232Z" fill="url(#paint0_linear_0_394)"/>
<mask id="mask0_0_394" style="mask-type:alpha" maskUnits="userSpaceOnUse" x="111" y="2" width="16" height="35">
<path fill-rule="evenodd" clip-rule="evenodd" d="M111.6 3.26232C111.58 2.84011 111.913 2.48515 112.336 2.47776L124.161 2.2708C124.929 2.25736 125.582 2.82202 125.666 3.58574C125.971 6.34073 126.641 12.9226 126.863 19.2946C127.088 25.7293 126.864 32.1786 126.75 34.7928C126.719 35.5024 126.187 36.057 125.477 36.0855C124.776 36.1137 123.705 36.1401 122.099 36.1467C119.537 36.1572 116.309 36.0881 114.503 36.0428C113.719 36.0231 113.087 35.4003 113.051 34.6171L111.6 3.26232Z" fill="white"/>
</mask>
<g mask="url(#mask0_0_394)">
<path fill-rule="evenodd" clip-rule="evenodd" d="M115.331 32.5006L126.89 32.2988L126.91 33.4431L115.351 33.6448L115.331 32.5006Z" fill="#1C1F34"/>
<path fill-rule="evenodd" clip-rule="evenodd" d="M115.331 32.8821L126.89 32.6803L126.964 36.8759L115.405 37.0777L115.331 32.8821Z" fill="#1C1F34"/>
<path fill-rule="evenodd" clip-rule="evenodd" d="M124.113 20.508C124.426 20.4971 124.688 20.7458 124.699 21.0609L124.803 24.0341C124.814 24.3503 124.572 24.6155 124.257 24.6265C123.945 24.6374 123.682 24.3886 123.671 24.0736L123.568 21.1004C123.557 20.7841 123.799 20.5189 124.113 20.508Z" fill="#1C1F34"/>
<path opacity="0.1" fill-rule="evenodd" clip-rule="evenodd" d="M105.659 23.8049L127.529 23.0412L127.542 23.4225L105.673 24.1862L105.659 23.8049Z" fill="#242D5F"/>
<path fill-rule="evenodd" clip-rule="evenodd" d="M117.876 27.4779C117.869 27.0567 118.2 26.7093 118.616 26.7021L123.901 26.6098C124.317 26.6026 124.659 26.9352 124.667 27.3594L124.707 29.6482C124.714 30.0694 124.383 30.4167 123.967 30.424L118.682 30.5162C118.267 30.5235 117.924 30.1909 117.916 29.7667L117.876 27.4779Z" fill="white"/>
<path fill-rule="evenodd" clip-rule="evenodd" d="M117.876 27.4779C117.869 27.0567 118.2 26.7093 118.616 26.7021L123.901 26.6098C124.317 26.6026 124.659 26.9352 124.667 27.3594L124.707 29.6482C124.714 30.0694 124.383 30.4167 123.967 30.424L118.682 30.5162C118.267 30.5235 117.924 30.1909 117.916 29.7667L117.876 27.4779Z" fill="url(#paint1_linear_0_394)" fill-opacity="0.2"/>
<path fill-rule="evenodd" clip-rule="evenodd" d="M118.623 27.7869C118.62 27.6165 118.754 27.4759 118.917 27.4731L123.6 27.3913C123.765 27.3884 123.902 27.5224 123.905 27.6947L123.934 29.366C123.937 29.5364 123.803 29.677 123.64 29.6798L118.957 29.7616C118.792 29.7645 118.655 29.6305 118.652 29.4582L118.623 27.7869Z" fill="white"/>
<path fill-rule="evenodd" clip-rule="evenodd" d="M122.928 28.3937L122.924 28.1805L122.818 28.1824C122.808 28.1826 122.798 28.1842 122.789 28.1874C122.78 28.1905 122.771 28.196 122.764 28.2037C122.757 28.2115 122.752 28.2223 122.748 28.236C122.743 28.2496 122.742 28.2671 122.742 28.2884C122.743 28.3267 122.75 28.3542 122.763 28.371C122.776 28.3878 122.793 28.3961 122.813 28.3957L122.928 28.3937ZM123.034 28.0228L123.05 28.9342L122.801 28.9386C122.778 28.939 122.755 28.9343 122.733 28.9244C122.711 28.9146 122.692 28.8992 122.674 28.8782C122.657 28.8572 122.643 28.83 122.632 28.7966C122.621 28.7632 122.616 28.7235 122.615 28.6775C122.614 28.6205 122.621 28.5716 122.636 28.5309C122.65 28.4902 122.674 28.4615 122.705 28.4448C122.682 28.4256 122.664 28.4008 122.652 28.3704C122.639 28.34 122.633 28.3018 122.632 28.2558C122.631 28.2133 122.634 28.1775 122.642 28.1484C122.649 28.1193 122.66 28.0959 122.674 28.0782C122.688 28.0605 122.705 28.0477 122.725 28.0397C122.745 28.0317 122.768 28.0274 122.792 28.027L123.034 28.0228ZM122.934 28.7805L122.93 28.5303L122.807 28.5324C122.782 28.5329 122.763 28.5432 122.748 28.5635C122.734 28.5837 122.727 28.6173 122.728 28.6641C122.728 28.6879 122.731 28.7074 122.736 28.7227C122.74 28.7379 122.747 28.7499 122.755 28.7587C122.762 28.7675 122.771 28.7737 122.782 28.7774C122.792 28.7811 122.802 28.7828 122.813 28.7826L122.934 28.7805ZM122.296 28.2808L122.302 28.591L122.434 28.5887L122.298 28.2808L122.296 28.2808ZM122.304 28.7404L122.308 28.9472L122.21 28.9489L122.207 28.7421L122.14 28.7433L122.137 28.5939L122.204 28.5927L122.195 28.0553L122.286 28.0537L122.515 28.5707L122.517 28.7367L122.304 28.7404ZM121.936 28.3024C121.936 28.282 121.934 28.2642 121.929 28.2489C121.925 28.2337 121.919 28.221 121.912 28.2109C121.904 28.2008 121.896 28.1931 121.887 28.1877C121.877 28.1824 121.867 28.1798 121.857 28.18C121.841 28.1802 121.829 28.1847 121.819 28.1934C121.809 28.2021 121.802 28.2128 121.796 28.2257C121.791 28.2386 121.788 28.252 121.786 28.2661C121.784 28.2802 121.783 28.2932 121.784 28.3051C121.784 28.3434 121.792 28.3724 121.807 28.3922C121.822 28.4119 121.84 28.4216 121.861 28.4212C121.882 28.4208 121.9 28.4105 121.915 28.3903C121.93 28.37 121.937 28.3407 121.936 28.3024ZM122.029 28.2842C122.03 28.3285 122.024 28.3673 122.012 28.4007C122.001 28.4341 121.982 28.457 121.958 28.4693L121.958 28.4719C121.989 28.4841 122.013 28.5092 122.03 28.5472C122.047 28.5853 122.056 28.6328 122.057 28.6898C122.058 28.7383 122.053 28.7801 122.043 28.8152C122.033 28.8502 122.019 28.8794 122.001 28.9027C121.984 28.926 121.964 28.9432 121.941 28.9542C121.918 28.9653 121.895 28.971 121.87 28.9714C121.847 28.9718 121.824 28.9665 121.801 28.9554C121.778 28.9443 121.758 28.9274 121.739 28.9047C121.721 28.8821 121.706 28.8534 121.695 28.8187C121.684 28.784 121.677 28.7428 121.677 28.6951C121.676 28.639 121.683 28.5914 121.699 28.5524C121.714 28.5134 121.737 28.4877 121.767 28.4752L121.767 28.4727C121.742 28.4586 121.724 28.4351 121.711 28.4021C121.698 28.3692 121.691 28.3306 121.69 28.2863C121.69 28.2642 121.692 28.2392 121.698 28.2115C121.703 28.1837 121.712 28.1576 121.725 28.1331C121.738 28.1086 121.755 28.0877 121.776 28.0703C121.797 28.0529 121.824 28.0439 121.855 28.0434C121.875 28.043 121.896 28.0478 121.916 28.0576C121.937 28.0675 121.955 28.0825 121.972 28.1026C121.988 28.1228 122.002 28.1481 122.012 28.1785C122.023 28.209 122.028 28.2442 122.029 28.2842ZM121.955 28.6827C121.954 28.6367 121.945 28.6017 121.927 28.5778C121.909 28.5538 121.888 28.5421 121.863 28.5425C121.851 28.5427 121.84 28.5463 121.829 28.5533C121.819 28.5603 121.81 28.5703 121.803 28.5832C121.795 28.5961 121.789 28.6113 121.785 28.6288C121.78 28.6463 121.778 28.6657 121.779 28.687C121.779 28.7091 121.782 28.7295 121.786 28.7482C121.791 28.7668 121.797 28.7827 121.806 28.7957C121.814 28.8088 121.823 28.8188 121.833 28.8259C121.844 28.8329 121.855 28.8363 121.868 28.8361C121.88 28.8359 121.891 28.8321 121.902 28.8247C121.913 28.8172 121.923 28.8069 121.93 28.7935C121.938 28.7802 121.944 28.7641 121.949 28.7453C121.953 28.7265 121.955 28.7056 121.955 28.6827ZM121.225 28.228L121.223 28.0723L121.567 28.0663L121.57 28.2348L121.331 28.239C121.381 28.3411 121.422 28.4536 121.453 28.5765C121.485 28.6994 121.505 28.8275 121.513 28.9611L121.403 28.963C121.402 28.9034 121.397 28.8392 121.388 28.7704C121.38 28.7016 121.368 28.6337 121.353 28.5667C121.338 28.4997 121.32 28.4366 121.298 28.3774C121.277 28.3182 121.253 28.2684 121.225 28.228ZM120.658 28.6312L120.648 28.0644L120.761 28.0625L120.771 28.6292C120.772 28.6973 120.781 28.7472 120.797 28.7788C120.812 28.8104 120.841 28.8259 120.881 28.8252C120.904 28.8248 120.922 28.8187 120.936 28.807C120.949 28.7953 120.96 28.7802 120.967 28.7618C120.974 28.7433 120.979 28.7222 120.981 28.6983C120.983 28.6745 120.984 28.6502 120.983 28.6255L120.974 28.0588L121.087 28.0568L121.097 28.6235C121.099 28.7478 121.081 28.84 121.044 28.9002C121.007 28.9605 120.954 28.9912 120.884 28.9924C120.815 28.9936 120.761 28.9646 120.721 28.9053C120.681 28.8459 120.66 28.7546 120.658 28.6312ZM120.424 28.6774L120.533 28.6755C120.535 28.7317 120.53 28.7803 120.519 28.8214C120.507 28.8624 120.492 28.8963 120.472 28.9231C120.452 28.9498 120.429 28.9696 120.402 28.9824C120.376 28.9952 120.348 29.0018 120.32 29.0023C120.285 29.0029 120.254 28.9962 120.227 28.9822C120.2 28.9682 120.177 28.9484 120.159 28.9228C120.14 28.8971 120.126 28.8665 120.117 28.8309C120.107 28.7954 120.102 28.7567 120.101 28.715C120.1 28.6639 120.105 28.6219 120.117 28.589C120.129 28.556 120.143 28.5296 120.159 28.5097C120.176 28.4898 120.192 28.4753 120.209 28.466C120.226 28.4568 120.239 28.4504 120.249 28.4468C120.281 28.4318 120.307 28.4194 120.327 28.4097C120.346 28.4 120.362 28.3904 120.373 28.3808C120.384 28.3713 120.391 28.3609 120.395 28.3498C120.399 28.3387 120.4 28.3242 120.4 28.3063C120.4 28.2867 120.397 28.2706 120.392 28.2579C120.387 28.2452 120.381 28.2347 120.373 28.2263C120.366 28.2179 120.357 28.2121 120.348 28.2089C120.339 28.2056 120.33 28.2041 120.321 28.2042C120.307 28.2045 120.294 28.2068 120.282 28.2113C120.27 28.2158 120.26 28.2232 120.251 28.2335C120.242 28.2439 120.235 28.2581 120.23 28.2761C120.225 28.294 120.222 28.3166 120.221 28.3439L120.112 28.3458C120.111 28.293 120.116 28.248 120.126 28.2108C120.137 28.1736 120.152 28.1429 120.17 28.1188C120.189 28.0946 120.211 28.077 120.236 28.0659C120.26 28.0548 120.286 28.0491 120.313 28.0486C120.336 28.0482 120.359 28.0533 120.382 28.064C120.405 28.0746 120.426 28.0913 120.445 28.114C120.464 28.1366 120.479 28.1651 120.491 28.1994C120.503 28.2336 120.509 28.2742 120.51 28.321C120.511 28.3627 120.507 28.3983 120.499 28.4278C120.49 28.4573 120.479 28.482 120.465 28.5018C120.451 28.5216 120.435 28.5379 120.417 28.5505C120.399 28.5632 120.38 28.5739 120.361 28.5828C120.342 28.5925 120.324 28.6013 120.306 28.6093C120.288 28.6173 120.272 28.6265 120.257 28.6369C120.243 28.6474 120.232 28.6604 120.223 28.6758C120.214 28.6913 120.21 28.7114 120.211 28.7361C120.211 28.7591 120.215 28.7779 120.222 28.7927C120.229 28.8075 120.238 28.819 120.248 28.8274C120.258 28.8357 120.269 28.8413 120.28 28.844C120.292 28.8468 120.303 28.8481 120.313 28.8479C120.328 28.8477 120.342 28.8442 120.356 28.8376C120.37 28.831 120.382 28.821 120.392 28.8076C120.402 28.7942 120.41 28.7769 120.416 28.7555C120.422 28.7341 120.424 28.7081 120.424 28.6774ZM119.843 28.6377L119.77 28.3045L119.768 28.3045L119.709 28.6401L119.843 28.6377ZM119.822 28.0789L120.033 28.9869L119.919 28.9889L119.875 28.7866L119.682 28.79L119.647 28.9936L119.529 28.9957L119.706 28.0809L119.822 28.0789Z" fill="#1C1F34"/>
<g opacity="0.5">
<path fill-rule="evenodd" clip-rule="evenodd" d="M113.579 7.97231C113.502 6.70966 114.45 5.62555 115.697 5.55069L122.012 5.17185C123.259 5.09708 124.331 6.06142 124.407 7.31891L124.955 16.3905C125.031 17.6511 124.084 18.7399 122.837 18.8227L116.524 19.2416C115.278 19.3243 114.206 18.3668 114.13 17.1051L113.579 7.97231Z" fill="url(#paint2_linear_0_394)"/>
<path fill-rule="evenodd" clip-rule="evenodd" d="M113.579 7.97231C113.502 6.70966 114.45 5.62555 115.697 5.55069L122.012 5.17185C123.259 5.09708 124.331 6.06142 124.407 7.31891L124.955 16.3905C125.031 17.6511 124.084 18.7399 122.837 18.8227L116.524 19.2416C115.278 19.3243 114.206 18.3668 114.13 17.1051L113.579 7.97231Z" fill="url(#paint3_linear_0_394)" fill-opacity="0.3"/>
</g>
<path fill-rule="evenodd" clip-rule="evenodd" d="M113.94 7.96047C113.877 6.90936 114.668 6.00665 115.71 5.94402L122.022 5.56466C123.062 5.50211 123.957 6.30653 124.02 7.35201L124.568 16.4315C124.631 17.4812 123.84 18.3882 122.799 18.4575L116.489 18.8775C115.449 18.9467 114.554 18.1534 114.491 17.0996L113.94 7.96047Z" fill="white"/>
<path fill-rule="evenodd" clip-rule="evenodd" d="M113.94 7.96047C113.877 6.90936 114.668 6.00665 115.71 5.94402L122.022 5.56466C123.062 5.50211 123.957 6.30653 124.02 7.35201L124.568 16.4315C124.631 17.4812 123.84 18.3882 122.799 18.4575L116.489 18.8775C115.449 18.9467 114.554 18.1534 114.491 17.0996L113.94 7.96047Z" fill="url(#paint4_linear_0_394)" fill-opacity="0.05"/>
<path fill-rule="evenodd" clip-rule="evenodd" d="M115.026 7.92979C115.001 7.51085 115.318 7.15084 115.732 7.12572L122.065 6.74219C122.48 6.71706 122.837 7.03779 122.862 7.45996L123.406 16.5466C123.431 16.9681 123.115 17.3325 122.7 17.3605L116.37 17.7872C115.955 17.8152 115.598 17.495 115.573 17.0793L115.026 7.92979Z" fill="white"/>
<path opacity="0.1" fill-rule="evenodd" clip-rule="evenodd" d="M114.653 36.841L120.519 36.8795C120.519 36.8795 120.873 30.3593 119.966 20.3317C119.059 10.304 117.356 2.14658 117.356 2.14658L112.575 2.55464L114.653 36.841Z" fill="#242D5F"/>
</g>
<path fill-rule="evenodd" clip-rule="evenodd" d="M115.797 37.5092C115.797 37.5092 116.868 33.3712 116.868 24.6979C116.868 16.0245 114.435 2.63294 114.435 2.63294C114.198 1.17881 112.824 1.27319e-08 111.364 1.207e-08C111.364 1.207e-08 48.3838 -1.60391e-08 38.4452 1.35347e-08C29.6664 -1.60391e-08 13.6142 19.0135 13.6142 19.0135C13.6142 19.0135 2.32771 24.1581 1.15738 27.2464C-0.0129629 30.3347 0.479371 38.2965 3.01601 40.1312C3.68197 40.6129 11.183 40.8448 21.8842 40.9248C21.8984 41.1173 22.06 41.2757 22.2574 41.2757H112.93C113.135 41.2757 113.304 41.1063 113.304 40.8973V40.0893C114.514 39.7879 115.577 38.7405 115.797 37.5092Z" fill="#1C1F34"/>
<path fill-rule="evenodd" clip-rule="evenodd" d="M19.2422 41.2756H93.1924V42.8015H19.2422V41.2756Z" fill="#1C1F34"/>
<path fill-rule="evenodd" clip-rule="evenodd" d="M115.043 37.5091C115.043 37.5091 116.113 33.3712 116.113 24.6978C116.113 16.0245 113.574 2.64056 113.574 2.64056C113.395 1.60358 112.407 0.762939 111.361 0.762939C111.361 0.762939 48.3838 0.762939 38.4452 0.762939C29.6664 0.762939 14.7461 19.3949 14.7461 19.3949C14.7461 19.3949 3.09649 24.4251 1.91197 27.2463C0.727446 30.0675 1.23397 37.5335 3.77061 39.3682C5.01504 40.2683 30.6381 40.4936 55.5308 40.5127C66.1817 40.5208 75.9853 40.6357 84.8587 40.5127H112.93C113.135 40.5127 113.304 40.3433 113.304 40.1343V39.7978C114.178 39.3298 114.869 38.4761 115.043 37.5091Z" fill="url(#paint5_linear_0_394)"/>
<path opacity="0.1" fill-rule="evenodd" clip-rule="evenodd" d="M1.51032 27.2834C1.51032 27.2834 6.68185 24.2078 9.45785 23.0517C11.5264 22.1902 16.0439 21.2306 16.0439 21.2306L16.1744 21.5891C16.1744 21.5891 11.6438 22.5542 9.56867 23.4184C6.79922 24.5717 1.64079 27.6418 1.64079 27.6418L1.51032 27.2834Z" fill="#242D5F"/>
<path fill-rule="evenodd" clip-rule="evenodd" d="M21.5312 24.8699L21.5093 25.2911C21.4598 26.2406 21.962 27.5706 22.6272 28.2582L27.6682 33.4684C28.2013 34.0195 29.2606 34.4662 30.0427 34.4662H35.4762C36.2545 34.4662 36.8798 33.851 36.873 33.0891L36.8051 23.9876C36.7982 23.2271 36.1634 22.5984 35.3892 22.5833L22.6421 23.8615C22.0582 23.8502 21.5608 24.3018 21.5312 24.8699Z" fill="white"/>
<path fill-rule="evenodd" clip-rule="evenodd" d="M21.5312 24.8699L21.5093 25.2911C21.4598 26.2406 21.962 27.5706 22.6272 28.2582L27.6682 33.4684C28.2013 34.0195 29.2606 34.4662 30.0427 34.4662H35.4762C36.2545 34.4662 36.8798 33.851 36.873 33.0891L36.8051 23.9876C36.7982 23.2271 36.1634 22.5984 35.3892 22.5833L22.6421 23.8615C22.0582 23.8502 21.5608 24.3018 21.5312 24.8699Z" fill="url(#paint6_linear_0_394)" fill-opacity="0.05"/>
<path opacity="0.1" fill-rule="evenodd" clip-rule="evenodd" d="M25.2789 30.9758C25.2789 30.9758 39.9265 27.924 47.2502 27.924C67.9722 27.924 114.814 27.924 114.814 27.924V28.3054C114.814 28.3054 68.2295 28.3054 47.4432 28.3054C40.1838 28.3054 25.6649 30.9758 25.6649 30.9758H25.2789Z" fill="#242D5F"/>
<path opacity="0.1" fill-rule="evenodd" clip-rule="evenodd" d="M31.3156 5.41693C31.3156 5.41693 33.7735 3.12805 40.4733 3.12805C59.4297 3.12805 114.059 3.12805 114.059 3.12805V3.50953C114.059 3.50953 59.2878 3.50953 40.2725 3.50953C33.6316 3.50953 32.0702 5.03545 32.0702 5.03545L31.3156 5.41693Z" fill="#242D5F"/>
<path opacity="0.1" fill-rule="evenodd" clip-rule="evenodd" d="M41.1254 3.12805H66.027V3.50952H41.1254V3.12805Z" fill="#242D5F"/>
<path opacity="0.2" fill-rule="evenodd" clip-rule="evenodd" d="M28.2972 34.0276H87.5329V35.5535H28.2972V34.0276Z" fill="black"/>
<path fill-rule="evenodd" clip-rule="evenodd" d="M21.8832 32.5017H92.2805V37.4609H21.8832V32.5017Z" fill="#1C1F34"/>
<path fill-rule="evenodd" clip-rule="evenodd" d="M40.7481 3.12805H41.5027V40.8941H40.7481V3.12805Z" fill="#1C1F34"/>
<path fill-rule="evenodd" clip-rule="evenodd" d="M46.5938 24.4907C46.9077 24.4907 47.1621 24.7447 47.1621 25.0629C47.1621 25.3789 46.9069 25.6351 46.5938 25.6351H44.3348C44.0209 25.6351 43.7665 25.3812 43.7665 25.0629C43.7665 24.7469 44.0217 24.4907 44.3348 24.4907H46.5938Z" fill="#1C1F34"/>
<path fill-rule="evenodd" clip-rule="evenodd" d="M18.6374 29.0975C14.7243 25.9262 16.2212 18.8231 16.2212 18.8231L16.8553 18.0056C16.8553 18.0056 15.3975 25.2612 18.9309 28.5923C22.7886 31.8828 24.147 40.8941 24.147 40.8941H23.513C23.513 40.8941 21.8334 32.2109 18.6374 29.0975Z" fill="#1C1F34"/>
<path fill-rule="evenodd" clip-rule="evenodd" d="M37.916 24.4907C38.2299 24.4907 38.4844 24.7447 38.4844 25.0629C38.4844 25.3789 38.2291 25.6351 37.916 25.6351H35.657C35.3431 25.6351 35.0887 25.3812 35.0887 25.0629C35.0887 24.7469 35.3439 24.4907 35.657 24.4907H37.916Z" fill="#1C1F34"/>
<path fill-rule="evenodd" clip-rule="evenodd" d="M19.967 21.7682C18.1027 21.9846 17.4311 20.878 18.505 19.3264C18.505 19.3264 19.5771 17.3867 23.138 13.537C26.699 9.68738 28.7273 7.63688 28.7273 7.63688C29.4571 6.88718 30.8918 6.20109 31.9256 6.10502L36.9152 5.64137C38.3697 5.5062 39.4 6.57971 39.2154 8.04602L38.0813 17.0556C37.8971 18.5188 36.5726 19.8413 35.1218 20.0097L19.967 21.7682Z" fill="#1C1F34"/>
<path fill-rule="evenodd" clip-rule="evenodd" d="M19.6554 20.8688C19.0351 20.9395 18.8187 20.5758 19.1743 20.0532L20.9638 17.4238C21.5544 16.5559 22.6115 15.2259 23.3182 14.4603L29.2282 8.05762C29.7966 7.44188 30.9327 6.88222 31.7602 6.80808L37.2705 6.31442C38.1006 6.24006 38.6872 6.85784 38.5811 7.69223L37.3513 17.3626C37.2451 18.1979 36.485 18.9519 35.6583 19.046L19.6554 20.8688Z" fill="url(#paint7_linear_0_394)"/>
<path fill-rule="evenodd" clip-rule="evenodd" d="M36.822 11.4884C36.8459 11.0847 37.1915 10.7574 37.5948 10.7574H37.3775C37.7804 10.7574 38.107 11.0867 38.107 11.4884V14.2227C38.107 14.6264 37.7837 14.9537 37.3794 14.9537H37.3445C36.9427 14.9537 36.6364 14.6244 36.6602 14.2227L36.822 11.4884Z" fill="#1C1F34"/>
<path fill-rule="evenodd" clip-rule="evenodd" d="M36.977 16.0981H37.3506C37.7683 16.0981 38.0145 16.4256 37.8988 16.8349L36.5978 19.15H35.0886L35.9551 16.8137C36.1017 16.4185 36.5578 16.0981 36.977 16.0981Z" fill="#1C1F34"/>
<path fill-rule="evenodd" clip-rule="evenodd" d="M25.7897 20.5103C25.9413 20.7868 26.2841 20.5021 26.5575 20.3489C26.8327 20.1946 26.9303 20.2302 26.7797 19.9554L24.9473 16.6131C24.7957 16.3366 24.4529 16.2398 24.1795 16.393C23.9042 16.5473 23.8067 16.8932 23.9573 17.168L24.9535 18.985L23.712 20.0062L24.2617 20.9311L25.6871 20.3232L25.7897 20.5103Z" fill="#1C1F34"/>
<path fill-rule="evenodd" clip-rule="evenodd" d="M18.4875 20.021L20.6342 16.4313L26.3422 20.73L18.8648 21.4389L18.4875 20.021Z" fill="#1C1F34"/>
<path opacity="0.1" fill-rule="evenodd" clip-rule="evenodd" d="M19.2543 20.2727C19.1404 19.034 19.8654 16.9088 19.8654 16.9088C19.9958 16.4864 20.4615 16.035 20.9052 15.9008L21.392 15.7534C21.8359 15.6191 22.2283 15.8641 22.2689 16.3062L22.8579 22.7112C22.8984 23.1508 22.5542 23.5385 22.0928 23.577L21.2518 23.647C20.7888 23.6855 20.2759 23.3807 20.1123 22.9698C20.1123 22.9698 19.334 21.1392 19.2543 20.2727Z" fill="#242D5F"/>
<path fill-rule="evenodd" clip-rule="evenodd" d="M19.2547 19.5294C19.1631 18.471 19.605 16.7589 19.605 16.7589C19.6986 16.3486 20.0925 15.8987 20.4832 15.7547L20.4668 15.7607C20.8582 15.6164 21.2048 15.8383 21.241 16.2568L21.7012 21.5749C21.7374 21.9932 21.4327 22.3618 21.0153 22.3988L20.8274 22.4154C20.4124 22.4521 19.9666 22.1549 19.8372 21.7562C19.8372 21.7562 19.3187 20.2697 19.2547 19.5294Z" fill="#1C1F34"/>
<g opacity="0.1">
<path fill-rule="evenodd" clip-rule="evenodd" d="M25.8235 14.6706L30.1929 9.40571C30.3258 9.24564 30.5618 9.22471 30.7225 9.36108C30.8821 9.49651 30.9011 9.73934 30.771 9.89612L26.4016 15.161C26.2688 15.3211 26.0328 15.342 25.872 15.2056C25.7124 15.0702 25.6934 14.8274 25.8235 14.6706Z" fill="white"/>
<path fill-rule="evenodd" clip-rule="evenodd" d="M29.1233 13.1757C29.0434 13.1079 29.0347 12.9856 29.1001 12.9068L30.7976 10.8615C30.8646 10.7807 30.986 10.7721 31.0635 10.8379C31.1433 10.9056 31.152 11.0279 31.0866 11.1067L29.3891 13.152C29.3221 13.2328 29.2007 13.2414 29.1233 13.1757Z" fill="white"/>
</g>
<path fill-rule="evenodd" clip-rule="evenodd" d="M114.273 21.4928C114.215 19.8341 113.917 16.548 113.917 16.548C113.862 15.9197 114.321 15.3927 114.948 15.3709L115.118 15.3649C115.742 15.3431 116.293 15.8357 116.348 16.467C116.348 16.467 116.644 19.7169 116.701 21.3595C116.78 23.5965 116.539 27.9207 116.539 27.9207C116.507 28.5493 115.978 29.0764 115.351 29.0983L115.181 29.1042C114.557 29.126 114.078 28.633 114.109 27.9983C114.109 27.9983 114.35 23.7136 114.273 21.4928Z" fill="#1C1F34"/>
<path fill-rule="evenodd" clip-rule="evenodd" d="M114.918 21.5616C114.866 20.0872 114.516 16.5549 114.516 16.5549C114.496 16.3462 114.648 16.1711 114.855 16.1639L115.355 16.1464C115.563 16.1391 115.747 16.3029 115.768 16.5157C115.768 16.5157 116.117 20.0149 116.168 21.4749C116.237 23.4633 116.045 27.9575 116.045 27.9575C116.037 28.1674 115.861 28.3433 115.654 28.3506L115.154 28.368C114.947 28.3753 114.786 28.2116 114.794 27.9993C114.794 27.9993 114.987 23.5357 114.918 21.5616Z" fill="#C10000"/>
<mask id="mask1_0_394" style="mask-type:alpha" maskUnits="userSpaceOnUse" x="114" y="16" width="3" height="13">
<path fill-rule="evenodd" clip-rule="evenodd" d="M114.918 21.5616C114.866 20.0872 114.516 16.5549 114.516 16.5549C114.496 16.3462 114.648 16.1711 114.855 16.1639L115.355 16.1464C115.563 16.1391 115.747 16.3029 115.768 16.5157C115.768 16.5157 116.117 20.0149 116.168 21.4749C116.237 23.4633 116.045 27.9575 116.045 27.9575C116.037 28.1674 115.861 28.3433 115.654 28.3506L115.154 28.368C114.947 28.3753 114.786 28.2116 114.794 27.9993C114.794 27.9993 114.987 23.5357 114.918 21.5616Z" fill="white"/>
</mask>
<g mask="url(#mask1_0_394)">
<path opacity="0.4" fill-rule="evenodd" clip-rule="evenodd" d="M115.718 23.3863L116.196 23.3947L116.084 27.9711L115.521 27.9613L115.718 23.3863Z" fill="white"/>
</g>
<path fill-rule="evenodd" clip-rule="evenodd" d="M1.12885 27.5425H4.90793C5.32299 27.5425 5.58109 27.8718 5.48321 28.283L4.83699 30.9982C4.73965 31.4072 4.32114 31.7387 3.90689 31.7387H1.08678C0.67044 31.7387 0.305688 31.3953 0.272644 30.9788L0.437606 28.3024C0.40431 27.8827 0.714394 27.5425 1.12885 27.5425Z" fill="#1C1F34"/>
<path fill-rule="evenodd" clip-rule="evenodd" d="M1.14793 28.3054H4.86181L4.13983 30.9758H1.01129L1.14793 28.3054Z" fill="url(#paint8_linear_0_394)"/>
<mask id="mask2_0_394" style="mask-type:alpha" maskUnits="userSpaceOnUse" x="1" y="28" width="4" height="3">
<path fill-rule="evenodd" clip-rule="evenodd" d="M1.14793 28.3054H4.86181L4.13983 30.9758H1.01129L1.14793 28.3054Z" fill="white"/>
</mask>
<g mask="url(#mask2_0_394)">
<ellipse cx="1.5269" cy="29.6462" rx="0.5" ry="0.899194" transform="rotate(3 1.5269 29.6462)" fill="white"/>
<path opacity="0.2" fill-rule="evenodd" clip-rule="evenodd" d="M3.94808 27.5425H5.37094V31.439H3.19348L3.94808 27.5425Z" fill="#FF0000"/>
</g>
<path fill-rule="evenodd" clip-rule="evenodd" d="M13.5827 24.3C13.5827 23.984 13.8371 23.7278 14.1487 23.7278H14.9032C15.2158 23.7278 15.4692 23.9818 15.4692 24.3C15.4692 24.616 15.2148 24.8722 14.9032 24.8722H14.1487C13.8361 24.8722 13.5827 24.6182 13.5827 24.3Z" fill="#1C1F34"/>
<path fill-rule="evenodd" clip-rule="evenodd" d="M13.96 24.3C13.96 24.1946 14.0414 24.1093 14.1469 24.1093H14.905C15.0082 24.1093 15.0919 24.1977 15.0919 24.3C15.0919 24.4053 15.0105 24.4907 14.905 24.4907H14.1469C14.0436 24.4907 13.96 24.4022 13.96 24.3Z" fill="#F5A623"/>
<mask id="mask3_0_394" style="mask-type:alpha" maskUnits="userSpaceOnUse" x="13" y="24" width="3" height="1">
<path fill-rule="evenodd" clip-rule="evenodd" d="M13.96 24.3C13.96 24.1946 14.0414 24.1093 14.1469 24.1093H14.905C15.0082 24.1093 15.0919 24.1977 15.0919 24.3C15.0919 24.4053 15.0105 24.4907 14.905 24.4907H14.1469C14.0436 24.4907 13.96 24.4022 13.96 24.3Z" fill="white"/>
</mask>
<g mask="url(#mask3_0_394)">
<path fill-rule="evenodd" clip-rule="evenodd" d="M13.5827 24.1093H14.3373V24.4907H13.5827V24.1093Z" fill="white"/>
</g>
<g opacity="0.5">
<path fill-rule="evenodd" clip-rule="evenodd" d="M47.161 5.41699H106.893C108.976 5.41699 110.822 7.11879 111.015 9.21527L111.86 18.4037C112.053 20.5014 110.521 22.2019 108.438 22.2019H47.1607C45.0778 22.2019 43.3892 20.4923 43.3892 18.3879V9.231C43.3892 7.12458 45.0764 5.41699 47.161 5.41699Z" fill="url(#paint9_linear_0_394)"/>
<path fill-rule="evenodd" clip-rule="evenodd" d="M47.161 5.41699H106.893C108.976 5.41699 110.822 7.11879 111.015 9.21527L111.86 18.4037C112.053 20.5014 110.521 22.2019 108.438 22.2019H47.1607C45.0778 22.2019 43.3892 20.4923 43.3892 18.3879V9.231C43.3892 7.12458 45.0764 5.41699 47.161 5.41699Z" fill="url(#paint10_linear_0_394)" fill-opacity="0.3"/>
</g>
<path fill-rule="evenodd" clip-rule="evenodd" d="M47.1625 5.79846H106.906C108.782 5.79846 110.448 7.32746 110.628 9.21592L111.503 18.403C111.682 20.2904 110.31 21.8204 108.431 21.8204H47.1633C45.2873 21.8204 43.7664 20.2842 43.7664 18.3882V9.23066C43.7664 7.33511 45.2853 5.79846 47.1625 5.79846Z" fill="white"/>
<path fill-rule="evenodd" clip-rule="evenodd" d="M47.1625 5.79846H106.906C108.782 5.79846 110.448 7.32746 110.628 9.21592L111.503 18.403C111.682 20.2904 110.31 21.8204 108.431 21.8204H47.1633C45.2873 21.8204 43.7664 20.2842 43.7664 18.3882V9.23066C43.7664 7.33511 45.2853 5.79846 47.1625 5.79846Z" fill="url(#paint11_linear_0_394)" fill-opacity="0.05"/>
<path fill-rule="evenodd" clip-rule="evenodd" d="M47.1629 6.94287H106.949C108.2 6.94287 109.323 7.96387 109.458 9.21832L110.441 18.4006C110.575 19.6572 109.674 20.676 108.418 20.676H47.1646C45.913 20.676 44.8984 19.655 44.8984 18.3851V9.23376C44.8984 7.96854 45.9086 6.94287 47.1629 6.94287Z" fill="url(#paint12_linear_0_394)"/>
<path fill-rule="evenodd" clip-rule="evenodd" d="M12.8016 20.1679C12.8016 20.1679 18.0313 14.3449 20.8349 11.4334C22.7037 9.49256 26.4414 6.37389 26.4414 6.37389L28.0382 5.08142L29.0301 5.21704C29.4432 5.27352 29.5298 5.55236 29.2244 5.83998C29.2244 5.83998 24.4347 10.3204 22.2085 12.7333C20.0615 15.0603 16.1449 19.7143 16.1449 19.7143L12.8016 20.1679Z" fill="#1C1F34"/>
<path fill-rule="evenodd" clip-rule="evenodd" d="M89.1696 21.4452V22.5771L65.8996 22.5771V21.4452L89.1696 21.4452Z" fill="#1C1F34"/>
<path fill-rule="evenodd" clip-rule="evenodd" d="M65.6497 3.12805H66.4042V40.8941H65.6497V3.12805Z" fill="#1C1F34"/>
<path fill-rule="evenodd" clip-rule="evenodd" d="M0.0614873 33.9636C-0.178095 33.1562 0.30352 32.5016 1.13993 32.5016H13.9619C14.7971 32.5016 15.4742 33.1854 15.4742 34.0269V41.2761C15.4742 42.1185 14.8099 42.6708 13.9947 42.5106L3.37091 40.422C2.55384 40.2613 1.6965 39.474 1.45767 38.6691L0.0614873 33.9636Z" fill="#1C1F34"/>
<ellipse opacity="0.1" cx="17.3556" cy="35.2191" rx="10.5643" ry="6.15076" fill="#242D5F"/>
<ellipse cx="17.3708" cy="36.1797" rx="9.44763" ry="5.96697" fill="#1C1F34"/>
<path fill-rule="evenodd" clip-rule="evenodd" d="M103.846 37.4608C103.014 37.4608 102.336 36.7765 102.336 35.9324V34.03C102.336 33.1859 102.258 32.5016 103.093 32.5016H115.412C116.246 32.5016 116.88 33.1828 116.828 34.0232L116.639 36.5048C116.576 37.3468 115.264 40.6521 114.902 41.2019C114.54 41.7517 113.203 41.7229 113.203 41.7229C112.379 41.8353 111.79 40.8477 111.894 40.0097L112.211 37.4608H103.846Z" fill="#1C1F34"/>
<ellipse opacity="0.1" rx="10.5643" ry="5.93311" transform="matrix(-1 0 0 1 96.4308 35.0015)" fill="#242D5F"/>
<ellipse rx="9.41271" ry="5.94498" transform="matrix(-1 0 0 1 96.4804 36.1578)" fill="#1C1F34"/>
<ellipse cx="17.3557" cy="39.6726" rx="7.92324" ry="8.01098" fill="#1C1F34"/>
<ellipse cx="17.3557" cy="39.6726" rx="4.90486" ry="4.95919" fill="url(#paint13_linear_0_394)"/>
<ellipse cx="17.3557" cy="39.6725" rx="2.64107" ry="2.67032" fill="#1C1F34"/>
<circle cx="17.4784" cy="35.9763" r="0.5" fill="#1C1F34"/>
<circle cx="17.4784" cy="43.6058" r="0.5" fill="#1C1F34"/>
<circle cx="18.7209" cy="36.2412" r="0.5" transform="rotate(20 18.7209 36.2412)" fill="#1C1F34"/>
<circle cx="16.14" cy="43.4106" r="0.5" transform="rotate(20 16.14 43.4106)" fill="#1C1F34"/>
<circle cx="19.7987" cy="36.92" r="0.5" transform="rotate(40 19.7987 36.92)" fill="#1C1F34"/>
<circle cx="14.9483" cy="42.7645" r="0.5" transform="rotate(40 14.9483 42.7645)" fill="#1C1F34"/>
<circle cx="20.5819" cy="37.9307" r="0.5" transform="rotate(60 20.5819 37.9307)" fill="#1C1F34"/>
<circle cx="14.0469" cy="41.7455" r="0.5" transform="rotate(60 14.0469 41.7455)" fill="#1C1F34"/>
<circle cx="20.9759" cy="39.1515" r="0.5" transform="rotate(80 20.9759 39.1515)" fill="#1C1F34"/>
<circle cx="13.5446" cy="40.4764" r="0.5" transform="rotate(80 13.5446 40.4764)" fill="#1C1F34"/>
<circle cx="20.9333" cy="40.4352" r="0.5" transform="rotate(100 20.9333 40.4352)" fill="#1C1F34"/>
<circle cx="13.5019" cy="39.1104" r="0.5" transform="rotate(100 13.5019 39.1104)" fill="#1C1F34"/>
<circle cx="20.4592" cy="41.627" r="0.5" transform="rotate(120 20.4592 41.627)" fill="#1C1F34"/>
<circle cx="13.9242" cy="37.8122" r="0.5" transform="rotate(120 13.9242 37.8122)" fill="#1C1F34"/>
<circle cx="19.6107" cy="42.5829" r="0.5" transform="rotate(140 19.6107 42.5829)" fill="#1C1F34"/>
<circle cx="14.7602" cy="36.7384" r="0.5" transform="rotate(140 14.7602 36.7384)" fill="#1C1F34"/>
<circle cx="18.4903" cy="43.1879" r="0.5" transform="rotate(160 18.4903 43.1879)" fill="#1C1F34"/>
<circle cx="15.9094" cy="36.0184" r="0.5" transform="rotate(160 15.9094 36.0184)" fill="#1C1F34"/>
<ellipse cx="96.4308" cy="39.6726" rx="7.92324" ry="8.01098" fill="#1C1F34"/>
<ellipse cx="96.4309" cy="39.6726" rx="4.90486" ry="4.95919" fill="url(#paint14_linear_0_394)"/>
<ellipse cx="96.4307" cy="39.6725" rx="2.64107" ry="2.67032" fill="#1C1F34"/>
<circle cx="96.5535" cy="35.9763" r="0.5" fill="#1C1F34"/>
<circle cx="96.5535" cy="43.6058" r="0.5" fill="#1C1F34"/>
<circle cx="97.796" cy="36.2412" r="0.5" transform="rotate(20 97.796 36.2412)" fill="#1C1F34"/>
<circle cx="95.2151" cy="43.4106" r="0.5" transform="rotate(20 95.2151 43.4106)" fill="#1C1F34"/>
<circle cx="98.8738" cy="36.92" r="0.5" transform="rotate(40 98.8738 36.92)" fill="#1C1F34"/>
<circle cx="94.0233" cy="42.7645" r="0.5" transform="rotate(40 94.0233 42.7645)" fill="#1C1F34"/>
<circle cx="99.657" cy="37.9307" r="0.5" transform="rotate(60 99.657 37.9307)" fill="#1C1F34"/>
<circle cx="93.122" cy="41.7455" r="0.5" transform="rotate(60 93.122 41.7455)" fill="#1C1F34"/>
<circle cx="100.051" cy="39.1515" r="0.5" transform="rotate(80 100.051 39.1515)" fill="#1C1F34"/>
<circle cx="92.6197" cy="40.4764" r="0.5" transform="rotate(80 92.6197 40.4764)" fill="#1C1F34"/>
<circle cx="100.008" cy="40.4352" r="0.5" transform="rotate(100 100.008 40.4352)" fill="#1C1F34"/>
<circle cx="92.577" cy="39.1104" r="0.5" transform="rotate(100 92.577 39.1104)" fill="#1C1F34"/>
<circle cx="99.5343" cy="41.627" r="0.5" transform="rotate(120 99.5343 41.627)" fill="#1C1F34"/>
<circle cx="92.9992" cy="37.8122" r="0.5" transform="rotate(120 92.9992 37.8122)" fill="#1C1F34"/>
<circle cx="98.6857" cy="42.5829" r="0.5" transform="rotate(140 98.6857 42.5829)" fill="#1C1F34"/>
<circle cx="93.8354" cy="36.7384" r="0.5" transform="rotate(140 93.8354 36.7384)" fill="#1C1F34"/>
<circle cx="97.5653" cy="43.1879" r="0.5" transform="rotate(160 97.5653 43.1879)" fill="#1C1F34"/>
<circle cx="94.9845" cy="36.0184" r="0.5" transform="rotate(160 94.9845 36.0184)" fill="#1C1F34"/>
<defs>
<linearGradient id="paint0_linear_0_394" x1="111.759" y1="2.49778" x2="112.916" y2="35.6194" gradientUnits="userSpaceOnUse">
<stop stop-color="white"/>
<stop offset="0.979592" stop-color="#F9F9FC"/>
</linearGradient>
<linearGradient id="paint1_linear_0_394" x1="124.68" y1="30.4116" x2="124.614" y2="26.6426" gradientUnits="userSpaceOnUse">
<stop stop-color="#1C1F34" stop-opacity="0.2"/>
<stop offset="1" stop-color="#1C1F34"/>
</linearGradient>
<linearGradient id="paint2_linear_0_394" x1="113.593" y1="5.613" x2="114.295" y2="19.0095" gradientUnits="userSpaceOnUse">
<stop stop-color="#E0E0E0"/>
<stop offset="1" stop-color="#E7E7E8"/>
</linearGradient>
<linearGradient id="paint3_linear_0_394" x1="125.081" y1="18.7933" x2="124.36" y2="5.04872" gradientUnits="userSpaceOnUse">
<stop stop-opacity="0.2"/>
<stop offset="1"/>
</linearGradient>
<linearGradient id="paint4_linear_0_394" x1="124.673" y1="18.4487" x2="123.993" y2="5.46129" gradientUnits="userSpaceOnUse">
<stop stop-opacity="0.2"/>
<stop offset="1"/>
</linearGradient>
<linearGradient id="paint5_linear_0_394" x1="2.75764" y1="0.762939" x2="2.75764" y2="39.5609" gradientUnits="userSpaceOnUse">
<stop stop-color="white"/>
<stop offset="0.979592" stop-color="#F9F9FC"/>
</linearGradient>
<linearGradient id="paint6_linear_0_394" x1="21.5059" y1="34.4662" x2="21.5059" y2="22.5833" gradientUnits="userSpaceOnUse">
<stop offset="0.0118583" stop-color="#1C1F34" stop-opacity="0.2"/>
<stop offset="1" stop-color="#1C1F34"/>
</linearGradient>
<linearGradient id="paint7_linear_0_394" x1="20.4423" y1="6.30835" x2="20.4423" y2="18.7369" gradientUnits="userSpaceOnUse">
<stop stop-color="#8388A4"/>
<stop offset="0.986707" stop-color="#A5A9C1"/>
</linearGradient>
<linearGradient id="paint8_linear_0_394" x1="1.01129" y1="28.3054" x2="1.01129" y2="30.9758" gradientUnits="userSpaceOnUse">
<stop stop-color="#FFC900"/>
<stop offset="1" stop-color="#FFF15E"/>
</linearGradient>
<linearGradient id="paint9_linear_0_394" x1="44.2566" y1="5.41699" x2="44.2566" y2="21.7768" gradientUnits="userSpaceOnUse">
<stop stop-color="#E0E0E0"/>
<stop offset="1" stop-color="#E7E7E8"/>
</linearGradient>
<linearGradient id="paint10_linear_0_394" x1="111.876" y1="22.2019" x2="111.876" y2="5.41699" gradientUnits="userSpaceOnUse">
<stop stop-opacity="0.2"/>
<stop offset="1"/>
</linearGradient>
<linearGradient id="paint11_linear_0_394" x1="111.518" y1="21.8204" x2="111.518" y2="5.79846" gradientUnits="userSpaceOnUse">
<stop stop-opacity="0.2"/>
<stop offset="1"/>
</linearGradient>
<linearGradient id="paint12_linear_0_394" x1="108.972" y1="20.055" x2="108.972" y2="6.94287" gradientUnits="userSpaceOnUse">
<stop stop-color="white"/>
<stop offset="1" stop-color="#F9F9FC"/>
</linearGradient>
<linearGradient id="paint13_linear_0_394" x1="22.0174" y1="44.1401" x2="22.0174" y2="34.7134" gradientUnits="userSpaceOnUse">
<stop stop-color="#A4ACBC"/>
<stop offset="0.9859" stop-color="#B5BBCA"/>
</linearGradient>
<linearGradient id="paint14_linear_0_394" x1="101.093" y1="44.1401" x2="101.093" y2="34.7134" gradientUnits="userSpaceOnUse">
<stop stop-color="#A4ACBC"/>
<stop offset="0.9859" stop-color="#B5BBCA"/>
</linearGradient>
</defs>
</svg>
